<svg xmlns="http://www.w3.org/2000/svg" width="1884.85205078125" height="1817.474609375" viewBox="-868.8981323242188 -924.0978393554688 1884.85205078125 1817.474609375"><title>Neo4j Graph Visualization</title><desc>Created using Neo4j (http://www.neo4j.com/)</desc><g class="layer relationships"><g class="relationship" transform="translate(-203.35569124853896 -859.4639562912206) rotate(513.1501622334295)"><path class="b-outline" fill="#A5ABB6" stroke="none" d="M 25 0.5 L 25.76589793792624 0.5 L 25.76589793792624 -0.5 L 25 -0.5 Z M 115.66589946380515 0.5 L 116.43179740173139 0.5 L 116.43179740173139 3.5 L 123.43179740173139 0 L 116.43179740173139 -3.5 L 116.43179740173139 -0.5 L 115.66589946380515 -0.5 Z"/><text text-anchor="middle" pointer-events="none" font-size="8px" fill="#000000" x="70.7158987008657" y="3" transform="rotate(180 70.7158987008657 0)" font-family="Helvetica Neue, Helvetica, Arial, sans-serif">SampleCarriesAlterat…</text></g><g class="relationship" transform="translate(-413.2352936926878 -84.576711447951) rotate(459.76800635698714)"><path class="b-outline" fill="#A5ABB6" stroke="none" d="M 25 0.5 L 30.86481792683685 0.5 L 30.86481792683685 -0.5 L 25 -0.5 Z M 123.39815075154388 0.5 L 129.26296867838073 0.5 L 129.26296867838073 3.5 L 136.26296867838073 0 L 129.26296867838073 -3.5 L 129.26296867838073 -0.5 L 123.39815075154388 -0.5 Z"/><text text-anchor="middle" pointer-events="none" font-size="8px" fill="#000000" x="77.13148433919037" y="3" transform="rotate(180 77.13148433919037 0)" font-family="Helvetica Neue, Helvetica, Arial, sans-serif">SampleCarriesAlteration</text></g><g class="relationship" transform="translate(915.4283940412422 156.33936439462997) rotate(474.8947305751089)"><path class="b-outline" fill="#A5ABB6" stroke="none" d="M 25 0.5 L 31.34834964175208 0.5 L 31.34834964175208 -0.5 L 25 -0.5 Z M 123.88168246645911 0.5 L 130.2300321082112 0.5 L 130.2300321082112 3.5 L 137.2300321082112 0 L 130.2300321082112 -3.5 L 130.2300321082112 -0.5 L 123.88168246645911 -0.5 Z"/><text text-anchor="middle" pointer-events="none" font-size="8px" fill="#000000" x="77.6150160541056" y="3" transform="rotate(180 77.6150160541056 0)" font-family="Helvetica Neue, Helvetica, Arial, sans-serif">SampleCarriesAlteration</text></g><g class="relationship" transform="translate(-43.21444825175024 66.01384421754919) rotate(363.7788153494877)"><path class="b-outline" fill="#A5ABB6" stroke="none" d="M 25 0.5 L 35.688561323358556 0.5 L 35.688561323358556 -0.5 L 25 -0.5 Z M 128.2218941480656 0.5 L 138.91045547142414 0.5 L 138.91045547142414 3.5 L 145.91045547142414 0 L 138.91045547142414 -3.5 L 138.91045547142414 -0.5 L 128.2218941480656 -0.5 Z"/><text text-anchor="middle" pointer-events="none" font-size="8px" fill="#000000" x="81.95522773571207" y="3" font-family="Helvetica Neue, Helvetica, Arial, sans-serif">SampleCarriesAlteration</text></g><g class="relationship" transform="translate(275.5463290372649 510.1373350552428) rotate(236.89561240370165)"><path class="b-outline" fill="#A5ABB6" stroke="none" d="M 25 0.5 L 38.96241974664186 0.5 L 38.96241974664186 -0.5 L 25 -0.5 Z M 131.49575257134887 0.5 L 145.45817231799074 0.5 L 145.45817231799074 3.5 L 152.45817231799074 0 L 145.45817231799074 -3.5 L 145.45817231799074 -0.5 L 131.49575257134887 -0.5 Z"/><text text-anchor="middle" pointer-events="none" font-size="8px" fill="#000000" x="85.22908615899537" y="3" transform="rotate(180 85.22908615899537 0)" font-family="Helvetica Neue, Helvetica, Arial, sans-serif">SampleCarriesAlteration</text></g><g class="relationship" transform="translate(-105.1988908774418 -259.8341543511939) rotate(385.2596474672186)"><path class="b-outline" fill="#A5ABB6" stroke="none" d="M 25 0.5 L 69.56111358439706 0.5 L 69.56111358439706 -0.5 L 25 -0.5 Z M 162.09444640910408 0.5 L 206.65555999350116 0.5 L 206.65555999350116 3.5 L 213.65555999350116 0 L 206.65555999350116 -3.5 L 206.65555999350116 -0.5 L 162.09444640910408 -0.5 Z"/><text text-anchor="middle" pointer-events="none" font-size="8px" fill="#000000" x="115.82777999675058" y="3" font-family="Helvetica Neue, Helvetica, Arial, sans-serif">SampleCarriesAlteration</text></g><g class="relationship" transform="translate(-622.9125943947091 -332.40176736173305) rotate(519.6301740960721)"><path class="b-outline" fill="#A5ABB6" stroke="none" d="M 25 0.5 L 25.90917598303197 0.5 L 25.90917598303197 -0.5 L 25 -0.5 Z M 113.57584010656713 0.5 L 114.4850160895991 0.5 L 114.4850160895991 3.5 L 121.4850160895991 0 L 114.4850160895991 -3.5 L 114.4850160895991 -0.5 L 113.57584010656713 -0.5 Z"/><text text-anchor="middle" pointer-events="none" font-size="8px" fill="#000000" x="69.74250804479955" y="3" transform="rotate(180 69.74250804479955 0)" font-family="Helvetica Neue, Helvetica, Arial, sans-serif">SampleCarriesAltera…</text></g><g class="relationship" transform="translate(-85.16189092115422 525.2885097403894) rotate(280.0980705143531)"><path class="b-outline" fill="#A5ABB6" stroke="none" d="M 25 0.5 L 39.03990681138221 0.5 L 39.03990681138221 -0.5 L 25 -0.5 Z M 131.57323963608923 0.5 L 145.61314644747145 0.5 L 145.61314644747145 3.5 L 152.61314644747145 0 L 145.61314644747145 -3.5 L 145.61314644747145 -0.5 L 131.57323963608923 -0.5 Z"/><text text-anchor="middle" pointer-events="none" font-size="8px" fill="#000000" x="85.30657322373573" y="3" font-family="Helvetica Neue, Helvetica, Arial, sans-serif">SampleCarriesAlteration</text></g><g class="relationship" transform="translate(262.9755018411511 309.97910736108173) rotate(386.3063372764479)"><path class="b-outline" fill="#A5ABB6" stroke="none" d="M 25 0.5 L 26.456376090017045 0.5 L 26.456376090017045 -0.5 L 25 -0.5 Z M 67.52304173943111 0.5 L 68.97941782944815 0.5 L 68.97941782944815 3.5 L 75.97941782944815 0 L 68.97941782944815 -3.5 L 68.97941782944815 -0.5 L 67.52304173943111 -0.5 Z"/><text text-anchor="middle" pointer-events="none" font-size="8px" fill="#000000" x="46.989708914724076" y="3" font-family="Helvetica Neue, Helvetica, Arial, sans-serif">Sample…</text></g><g class="relationship" transform="translate(-125.66930964102856 847.6202038088186) rotate(195.39839822390718)"><path class="b-outline" fill="#A5ABB6" stroke="none" d="M 25 0.5 L 25.51263338089987 0.5 L 25.51263338089987 -0.5 L 25 -0.5 Z M 115.41263490677878 0.5 L 115.92526828767865 0.5 L 115.92526828767865 3.5 L 122.92526828767865 0 L 115.92526828767865 -3.5 L 115.92526828767865 -0.5 L 115.41263490677878 -0.5 Z"/><text text-anchor="middle" pointer-events="none" font-size="8px" fill="#000000" x="70.46263414383932" y="3" transform="rotate(180 70.46263414383932 0)" font-family="Helvetica Neue, Helvetica, Arial, sans-serif">SampleCarriesAlterat…</text></g><g class="relationship" transform="translate(-335.7855453011227 -792.4241752987382) rotate(472.3677037393156)"><path class="b-outline" fill="#A5ABB6" stroke="none" d="M 25 0.5 L 26.600283019643612 0.5 L 26.600283019643612 -0.5 L 25 -0.5 Z M 110.73361431847174 0.5 L 112.33389733811535 0.5 L 112.33389733811535 3.5 L 119.33389733811535 0 L 112.33389733811535 -3.5 L 112.33389733811535 -0.5 L 110.73361431847174 -0.5 Z"/><text text-anchor="middle" pointer-events="none" font-size="8px" fill="#000000" x="68.66694866905767" y="3" transform="rotate(180 68.66694866905767 0)" font-family="Helvetica Neue, Helvetica, Arial, sans-serif">AlterationCausesFu…</text></g><g class="relationship" transform="translate(-440.59504420502265 74.3483939283463) rotate(534.7483072195284)"><path class="b-outline" fill="#A5ABB6" stroke="none" d="M 25 0.5 L 26.85393235711497 0.5 L 26.85393235711497 -0.5 L 25 -0.5 Z M 110.9872636559431 0.5 L 112.84119601305807 0.5 L 112.84119601305807 3.5 L 119.84119601305807 0 L 112.84119601305807 -3.5 L 112.84119601305807 -0.5 L 110.9872636559431 -0.5 Z"/><text text-anchor="middle" pointer-events="none" font-size="8px" fill="#000000" x="68.92059800652903" y="3" transform="rotate(180 68.92059800652903 0)" font-family="Helvetica Neue, Helvetica, Arial, sans-serif">AlterationCausesFu…</text></g><g class="relationship" transform="translate(847.1372739994896 303.495425232348) rotate(472.68630964131216)"><path class="b-outline" fill="#A5ABB6" stroke="none" d="M 25 0.5 L 25.62283306967015 0.5 L 25.62283306967015 -0.5 L 25 -0.5 Z M 114.18949871908421 0.5 L 114.81233178875436 0.5 L 114.81233178875436 3.5 L 121.81233178875436 0 L 114.81233178875436 -3.5 L 114.81233178875436 -0.5 L 114.18949871908421 -0.5 Z"/><text text-anchor="middle" pointer-events="none" font-size="8px" fill="#000000" x="69.90616589437718" y="3" transform="rotate(180 69.90616589437718 0)" font-family="Helvetica Neue, Helvetica, Arial, sans-serif">AlterationCausesFun…</text></g><g class="relationship selected" transform="translate(127.32443153766278 77.27769212231918) rotate(459.28410803116003)"><path class="b-outline" fill="#A5ABB6" stroke="none" d="M 25 0.5 L 25.952091829646747 0.5 L 25.952091829646747 -0.5 L 25 -0.5 Z M 110.08542312847487 0.5 L 111.03751495812162 0.5 L 111.03751495812162 3.5 L 118.03751495812162 0 L 111.03751495812162 -3.5 L 111.03751495812162 -0.5 L 110.08542312847487 -0.5 Z"/><text text-anchor="middle" pointer-events="none" font-size="8px" fill="#000000" x="68.01875747906081" y="3" transform="rotate(180 68.01875747906081 0)" font-family="Helvetica Neue, Helvetica, Arial, sans-serif">AlterationCausesFu…</text></g><g class="relationship" transform="translate(178.62468933233026 361.4847243168217) rotate(242.52745061764767)"><path class="b-outline" fill="#A5ABB6" stroke="none" d="M 25 0.5 L 26.612085583885474 0.5 L 26.612085583885474 -0.5 L 25 -0.5 Z M 127.61208558388547 0.5 L 129.22417116777095 0.5 L 129.22417116777095 3.5 L 136.22417116777095 0 L 129.22417116777095 -3.5 L 129.22417116777095 -0.5 L 127.61208558388547 -0.5 Z"/><text text-anchor="middle" pointer-events="none" font-size="8px" fill="#000000" x="77.11208558388547" y="3" transform="rotate(180 77.11208558388547 0)" font-family="Helvetica Neue, Helvetica, Arial, sans-serif">AlterationCausesFunctio…</text></g><g class="relationship" transform="translate(110.63721369387787 -157.99480891294985) rotate(249.52026724135493)"><path class="b-outline" fill="#A5ABB6" stroke="none" d="M 25 0.5 L 198.1810787605499 0.5 L 198.1810787605499 -0.5 L 25 -0.5 Z M 334.24774440996396 0.5 L 507.42882317051385 0.5 L 507.42882317051385 3.5 L 514.4288231705139 0 L 507.42882317051385 -3.5 L 507.42882317051385 -0.5 L 334.24774440996396 -0.5 Z"/><text text-anchor="middle" pointer-events="none" font-size="8px" fill="#000000" x="266.2144115852569" y="3" transform="rotate(180 266.2144115852569 0)" font-family="Helvetica Neue, Helvetica, Arial, sans-serif">AlterationCausesFunctionalOutcome</text></g><g class="relationship" transform="translate(-760.2372330734349 -281.4134986077588) rotate(255.15202640095617)"><path class="b-outline" fill="#A5ABB6" stroke="none" d="M 25 0.5 L 26.1509791229454 0.5 L 26.1509791229454 -0.5 L 25 -0.5 Z M 110.28431042177353 0.5 L 111.43528954471893 0.5 L 111.43528954471893 3.5 L 118.43528954471893 0 L 111.43528954471893 -3.5 L 111.43528954471893 -0.5 L 110.28431042177353 -0.5 Z"/><text text-anchor="middle" pointer-events="none" font-size="8px" fill="#000000" x="68.21764477235946" y="3" transform="rotate(180 68.21764477235946 0)" font-family="Helvetica Neue, Helvetica, Arial, sans-serif">AlterationCausesFu…</text></g><g class="relationship" transform="translate(-54.02034352317378 350.42675343950384) rotate(320.1741738720634)"><path class="b-outline" fill="#A5ABB6" stroke="none" d="M 25 0.5 L 31.506749997559552 0.5 L 31.506749997559552 -0.5 L 25 -0.5 Z M 167.57341564697361 0.5 L 174.08016564453317 0.5 L 174.08016564453317 3.5 L 181.08016564453317 0 L 174.08016564453317 -3.5 L 174.08016564453317 -0.5 L 167.57341564697361 -0.5 Z"/><text text-anchor="middle" pointer-events="none" font-size="8px" fill="#000000" x="99.54008282226658" y="3" font-family="Helvetica Neue, Helvetica, Arial, sans-serif">AlterationCausesFunctionalOutcome</text></g><g class="relationship" transform="translate(353.4972304734563 354.73019081828494) rotate(208.66971821980076)"><path class="b-outline" fill="#A5ABB6" stroke="none" d="M 25 0.5 L 70.50513193507675 0.5 L 70.50513193507675 -0.5 L 25 -0.5 Z M 206.5717975844908 0.5 L 252.07692951956756 0.5 L 252.07692951956756 3.5 L 259.07692951956756 0 L 252.07692951956756 -3.5 L 252.07692951956756 -0.5 L 206.5717975844908 -0.5 Z"/><text text-anchor="middle" pointer-events="none" font-size="8px" fill="#000000" x="138.53846475978378" y="3" transform="rotate(180 138.53846475978378 0)" font-family="Helvetica Neue, Helvetica, Arial, sans-serif">AlterationCausesFunctionalOutcome</text></g><g class="relationship" transform="translate(-268.2844791024732 808.3417308565113) rotate(252.86647415657637)"><path class="b-outline" fill="#A5ABB6" stroke="none" d="M 25 0.5 L 26.52799337143091 0.5 L 26.52799337143091 -0.5 L 25 -0.5 Z M 110.66132467025903 0.5 L 112.18931804168994 0.5 L 112.18931804168994 3.5 L 119.18931804168994 0 L 112.18931804168994 -3.5 L 112.18931804168994 -0.5 L 110.66132467025903 -0.5 Z"/><text text-anchor="middle" pointer-events="none" font-size="8px" fill="#000000" x="68.59465902084497" y="3" transform="rotate(180 68.59465902084497 0)" font-family="Helvetica Neue, Helvetica, Arial, sans-serif">AlterationCausesFu…</text></g><g class="relationship" transform="translate(306.439494566502 -297.65785103347525) rotate(216.01041114800068)"><path class="b-outline" fill="#A5ABB6" stroke="none" d="M 25 0.5 L 26.16321990805863 0.5 L 26.16321990805863 -0.5 L 25 -0.5 Z M 73.89655349570512 0.5 L 75.05977340376374 0.5 L 75.05977340376374 3.5 L 82.05977340376374 0 L 75.05977340376374 -3.5 L 75.05977340376374 -0.5 L 73.89655349570512 -0.5 Z"/><text text-anchor="middle" pointer-events="none" font-size="8px" fill="#000000" x="50.02988670188187" y="3" transform="rotate(180 50.02988670188187 0)" font-family="Helvetica Neue, Helvetica, Arial, sans-serif">Alteration…</text></g><g class="relationship" transform="translate(306.439494566502 -297.65785103347525) rotate(241.52162361490275)"><path class="b-outline" fill="#A5ABB6" stroke="none" d="M 25 0.5 L 35.610545000955 0.5 L 35.610545000955 -0.5 L 25 -0.5 Z M 141.04387935154094 0.5 L 151.65442435249594 0.5 L 151.65442435249594 3.5 L 158.65442435249594 0 L 151.65442435249594 -3.5 L 151.65442435249594 -0.5 L 141.04387935154094 -0.5 Z"/><text text-anchor="middle" pointer-events="none" font-size="8px" fill="#000000" x="88.32721217624797" y="3" transform="rotate(180 88.32721217624797 0)" font-family="Helvetica Neue, Helvetica, Arial, sans-serif">AlterationBiomarkerForDrug</text></g><g class="relationship" transform="translate(306.439494566502 -297.65785103347525) rotate(297.95606094582376)"><path class="b-outline" fill="#A5ABB6" stroke="none" d="M 25 0.5 L 35.0614958123014 0.5 L 35.0614958123014 -0.5 L 25 -0.5 Z M 140.49483016288735 0.5 L 150.55632597518874 0.5 L 150.55632597518874 3.5 L 157.55632597518874 0 L 150.55632597518874 -3.5 L 150.55632597518874 -0.5 L 140.49483016288735 -0.5 Z"/><text text-anchor="middle" pointer-events="none" font-size="8px" fill="#000000" x="87.77816298759437" y="3" font-family="Helvetica Neue, Helvetica, Arial, sans-serif">AlterationBiomarkerForDrug</text></g><g class="relationship" transform="translate(306.439494566502 -297.65785103347525) rotate(212.72057646793735)"><path class="b-outline" fill="#A5ABB6" stroke="none" d="M 25 0.5 L 45.42465566770788 0.5 L 45.42465566770788 -0.5 L 25 -0.5 Z M 150.85799001829383 0.5 L 171.2826456860017 0.5 L 171.2826456860017 3.5 L 178.2826456860017 0 L 171.2826456860017 -3.5 L 171.2826456860017 -0.5 L 150.85799001829383 -0.5 Z"/><text text-anchor="middle" pointer-events="none" font-size="8px" fill="#000000" x="98.14132284300085" y="3" transform="rotate(180 98.14132284300085 0)" font-family="Helvetica Neue, Helvetica, Arial, sans-serif">AlterationBiomarkerForDrug</text></g><g class="relationship" transform="translate(306.439494566502 -297.65785103347525) rotate(269.75504620552374)"><path class="b-outline" fill="#A5ABB6" stroke="none" d="M 25 0.5 L 48.65927974424794 0.5 L 48.65927974424794 -0.5 L 25 -0.5 Z M 154.0926140948339 0.5 L 177.75189383908182 0.5 L 177.75189383908182 3.5 L 184.75189383908182 0 L 177.75189383908182 -3.5 L 177.75189383908182 -0.5 L 154.0926140948339 -0.5 Z"/><text text-anchor="middle" pointer-events="none" font-size="8px" fill="#000000" x="101.37594691954091" y="3" transform="rotate(180 101.37594691954091 0)" font-family="Helvetica Neue, Helvetica, Arial, sans-serif">AlterationBiomarkerForDrug</text></g><g class="relationship" transform="translate(306.439494566502 -297.65785103347525) rotate(327.3260779958132)"><path class="b-outline" fill="#A5ABB6" stroke="none" d="M 25 0.5 L 44.74268855231324 0.5 L 44.74268855231324 -0.5 L 25 -0.5 Z M 150.17602290289918 0.5 L 169.91871145521242 0.5 L 169.91871145521242 3.5 L 176.91871145521242 0 L 169.91871145521242 -3.5 L 169.91871145521242 -0.5 L 150.17602290289918 -0.5 Z"/><text text-anchor="middle" pointer-events="none" font-size="8px" fill="#000000" x="97.45935572760621" y="3" font-family="Helvetica Neue, Helvetica, Arial, sans-serif">AlterationBiomarkerForDrug</text></g><g class="relationship" transform="translate(306.439494566502 -297.65785103347525) rotate(183.90350850025862)"><path class="b-outline" fill="#A5ABB6" stroke="none" d="M 25 0.5 L 29.462722559703877 0.5 L 29.462722559703877 -0.5 L 25 -0.5 Z M 134.89605691028981 0.5 L 139.3587794699937 0.5 L 139.3587794699937 3.5 L 146.3587794699937 0 L 139.3587794699937 -3.5 L 139.3587794699937 -0.5 L 134.89605691028981 -0.5 Z"/><text text-anchor="middle" pointer-events="none" font-size="8px" fill="#000000" x="82.17938973499685" y="3" transform="rotate(180 82.17938973499685 0)" font-family="Helvetica Neue, Helvetica, Arial, sans-serif">AlterationBiomarkerForDrug</text></g><g class="relationship" transform="translate(306.439494566502 -297.65785103347525) rotate(431.1757699034302)"><path class="b-outline" fill="#A5ABB6" stroke="none" d="M 25 0.5 L 26.162479596240203 0.5 L 26.162479596240203 -0.5 L 25 -0.5 Z M 115.19581242094723 0.5 L 116.35829201718744 0.5 L 116.35829201718744 3.5 L 123.35829201718744 0 L 116.35829201718744 -3.5 L 116.35829201718744 -0.5 L 115.19581242094723 -0.5 Z"/><text text-anchor="middle" pointer-events="none" font-size="8px" fill="#000000" x="70.67914600859372" y="3" font-family="Helvetica Neue, Helvetica, Arial, sans-serif">AlterationBiomarkerF…</text></g><g class="relationship" transform="translate(306.439494566502 -297.65785103347525) rotate(356.69925610219457)"><path class="b-outline" fill="#A5ABB6" stroke="none" d="M 25 0.5 L 27.930712909889394 0.5 L 27.930712909889394 -0.5 L 25 -0.5 Z M 133.36404726047533 0.5 L 136.29476017036473 0.5 L 136.29476017036473 3.5 L 143.29476017036473 0 L 136.29476017036473 -3.5 L 136.29476017036473 -0.5 L 133.36404726047533 -0.5 Z"/><text text-anchor="middle" pointer-events="none" font-size="8px" fill="#000000" x="80.64738008518236" y="3" font-family="Helvetica Neue, Helvetica, Arial, sans-serif">AlterationBiomarkerForDrug</text></g><g class="relationship" transform="translate(306.439494566502 -297.65785103347525) rotate(469.49891841763906)"><path class="b-outline" fill="#A5ABB6" stroke="none" d="M 25 0.5 L 25.273324586686996 0.5 L 25.273324586686996 -0.5 L 25 -0.5 Z M 121.40665588551512 0.5 L 121.67998047220212 0.5 L 121.67998047220212 3.5 L 128.67998047220212 0 L 121.67998047220212 -3.5 L 121.67998047220212 -0.5 L 121.40665588551512 -0.5 Z"/><text text-anchor="middle" pointer-events="none" font-size="8px" fill="#000000" x="73.33999023610106" y="3" transform="rotate(180 73.33999023610106 0)" font-family="Helvetica Neue, Helvetica, Arial, sans-serif">AlterationBiomarkerFor…</text></g><g class="relationship" transform="translate(306.439494566502 -297.65785103347525) rotate(508.63748975719903)"><path class="b-outline" fill="#A5ABB6" stroke="none" d="M 25 0.5 L 25.58283448930142 0.5 L 25.58283448930142 -0.5 L 25 -0.5 Z M 109.71616578812954 0.5 L 110.29900027743096 0.5 L 110.29900027743096 3.5 L 117.29900027743096 0 L 110.29900027743096 -3.5 L 110.29900027743096 -0.5 L 109.71616578812954 -0.5 Z"/><text text-anchor="middle" pointer-events="none" font-size="8px" fill="#000000" x="67.64950013871548" y="3" transform="rotate(180 67.64950013871548 0)" font-family="Helvetica Neue, Helvetica, Arial, sans-serif">AlterationBiomarker…</text></g><g class="relationship" transform="translate(306.439494566502 -297.65785103347525) rotate(269.1377759619454)"><path class="b-outline" fill="#A5ABB6" stroke="none" d="M 25 0.5 L 26.06327406927776 0.5 L 26.06327406927776 -0.5 L 25 -0.5 Z M 80.89660613104533 0.5 L 81.9598802003231 0.5 L 81.9598802003231 3.5 L 88.9598802003231 0 L 81.9598802003231 -3.5 L 81.9598802003231 -0.5 L 80.89660613104533 -0.5 Z"/><text text-anchor="middle" pointer-events="none" font-size="8px" fill="#000000" x="53.47994010016155" y="3" transform="rotate(180 53.47994010016155 0)" font-family="Helvetica Neue, Helvetica, Arial, sans-serif">AlterationBi…</text></g><g class="relationship" transform="translate(306.439494566502 -297.65785103347525) rotate(323.69609844511797)"><path class="b-outline" fill="#A5ABB6" stroke="none" d="M 25 0.5 L 25.7367847427019 0.5 L 25.7367847427019 -0.5 L 25 -0.5 Z M 73.47011833034838 0.5 L 74.20690307305028 0.5 L 74.20690307305028 3.5 L 81.20690307305028 0 L 74.20690307305028 -3.5 L 74.20690307305028 -0.5 L 73.47011833034838 -0.5 Z"/><text text-anchor="middle" pointer-events="none" font-size="8px" fill="#000000" x="49.60345153652514" y="3" font-family="Helvetica Neue, Helvetica, Arial, sans-serif">Alteration…</text></g><g class="relationship" transform="translate(306.439494566502 -297.65785103347525) rotate(426.29002389978865)"><path class="b-outline" fill="#A5ABB6" stroke="none" d="M 25 0.5 L 99.46603368673618 0.5 L 99.46603368673618 -0.5 L 25 -0.5 Z M 204.89936803732212 0.5 L 279.3654017240583 0.5 L 279.3654017240583 3.5 L 286.3654017240583 0 L 279.3654017240583 -3.5 L 279.3654017240583 -0.5 L 204.89936803732212 -0.5 Z"/><text text-anchor="middle" pointer-events="none" font-size="8px" fill="#000000" x="152.18270086202915" y="3" font-family="Helvetica Neue, Helvetica, Arial, sans-serif">AlterationBiomarkerForDrug</text></g><g class="relationship" transform="translate(306.439494566502 -297.65785103347525) rotate(392.44478641048033)"><path class="b-outline" fill="#A5ABB6" stroke="none" d="M 25 0.5 L 25.1259215357059 0.5 L 25.1259215357059 -0.5 L 25 -0.5 Z M 118.59258871099887 0.5 L 118.71851024670477 0.5 L 118.71851024670477 3.5 L 125.71851024670477 0 L 118.71851024670477 -3.5 L 118.71851024670477 -0.5 L 118.59258871099887 -0.5 Z"/><text text-anchor="middle" pointer-events="none" font-size="8px" fill="#000000" x="71.85925512335238" y="3" font-family="Helvetica Neue, Helvetica, Arial, sans-serif">AlterationBiomarkerFo…</text></g><g class="relationship" transform="translate(590.8797248220715 142.32746494935986) rotate(300.3236390029261)"><path class="b-outline" fill="#A5ABB6" stroke="none" d="M 25 0.5 L 66.03568791278455 0.5 L 66.03568791278455 -0.5 L 25 -0.5 Z M 171.4690222633705 0.5 L 212.50471017615504 0.5 L 212.50471017615504 3.5 L 219.50471017615504 0 L 212.50471017615504 -3.5 L 212.50471017615504 -0.5 L 171.4690222633705 -0.5 Z"/><text text-anchor="middle" pointer-events="none" font-size="8px" fill="#000000" x="118.75235508807752" y="3" font-family="Helvetica Neue, Helvetica, Arial, sans-serif">AlterationBiomarkerForDrug</text></g><g class="relationship" transform="translate(590.8797248220715 142.32746494935986) rotate(224.20911756844458)"><path class="b-outline" fill="#A5ABB6" stroke="none" d="M 25 0.5 L 54.85897168735774 0.5 L 54.85897168735774 -0.5 L 25 -0.5 Z M 160.29230603794366 0.5 L 190.1512777253014 0.5 L 190.1512777253014 3.5 L 197.1512777253014 0 L 190.1512777253014 -3.5 L 190.1512777253014 -0.5 L 160.29230603794366 -0.5 Z"/><text text-anchor="middle" pointer-events="none" font-size="8px" fill="#000000" x="107.5756388626507" y="3" transform="rotate(180 107.5756388626507 0)" font-family="Helvetica Neue, Helvetica, Arial, sans-serif">AlterationBiomarkerForDrug</text></g><g class="relationship" transform="translate(590.8797248220715 142.32746494935986) rotate(323.3816201527144)"><path class="b-outline" fill="#A5ABB6" stroke="none" d="M 25 0.5 L 43.99567186688492 0.5 L 43.99567186688492 -0.5 L 25 -0.5 Z M 149.42900621747086 0.5 L 168.42467808435578 0.5 L 168.42467808435578 3.5 L 175.42467808435578 0 L 168.42467808435578 -3.5 L 168.42467808435578 -0.5 L 149.42900621747086 -0.5 Z"/><text text-anchor="middle" pointer-events="none" font-size="8px" fill="#000000" x="96.71233904217789" y="3" font-family="Helvetica Neue, Helvetica, Arial, sans-serif">AlterationBiomarkerForDrug</text></g><g class="relationship" transform="translate(590.8797248220715 142.32746494935986) rotate(328.0701461705025)"><path class="b-outline" fill="#A5ABB6" stroke="none" d="M 25 0.5 L 25.952561000929535 0.5 L 25.952561000929535 -0.5 L 25 -0.5 Z M 69.25256023799008 0.5 L 70.20512123891962 0.5 L 70.20512123891962 3.5 L 77.20512123891962 0 L 70.20512123891962 -3.5 L 70.20512123891962 -0.5 L 69.25256023799008 -0.5 Z"/><text text-anchor="middle" pointer-events="none" font-size="8px" fill="#000000" x="47.60256061945981" y="3" font-family="Helvetica Neue, Helvetica, Arial, sans-serif">Alteratio…</text></g><g class="relationship" transform="translate(569.0335887766064 45.771347693380264) rotate(321.76026569789497)"><path class="b-outline" fill="#A5ABB6" stroke="none" d="M 25 0.5 L 36.27598165893683 0.5 L 36.27598165893683 -0.5 L 25 -0.5 Z M 141.70931600952275 0.5 L 152.9852976684596 0.5 L 152.9852976684596 3.5 L 159.9852976684596 0 L 152.9852976684596 -3.5 L 152.9852976684596 -0.5 L 141.70931600952275 -0.5 Z"/><text text-anchor="middle" pointer-events="none" font-size="8px" fill="#000000" x="88.9926488342298" y="3" font-family="Helvetica Neue, Helvetica, Arial, sans-serif">AlterationBiomarkerForDrug</text></g><g class="relationship" transform="translate(569.0335887766064 45.771347693380264) rotate(203.0091773833057)"><path class="b-outline" fill="#A5ABB6" stroke="none" d="M 25 0.5 L 26.61692567547422 0.5 L 26.61692567547422 -0.5 L 25 -0.5 Z M 115.65025850018125 0.5 L 117.26718417565547 0.5 L 117.26718417565547 3.5 L 124.26718417565547 0 L 117.26718417565547 -3.5 L 117.26718417565547 -0.5 L 115.65025850018125 -0.5 Z"/><text text-anchor="middle" pointer-events="none" font-size="8px" fill="#000000" x="71.13359208782774" y="3" transform="rotate(180 71.13359208782774 0)" font-family="Helvetica Neue, Helvetica, Arial, sans-serif">AlterationBiomarkerF…</text></g><g class="relationship" transform="translate(569.0335887766064 45.771347693380264) rotate(352.8272409777686)"><path class="b-outline" fill="#A5ABB6" stroke="none" d="M 25 0.5 L 35.86002264513661 0.5 L 35.86002264513661 -0.5 L 25 -0.5 Z M 141.29335699572255 0.5 L 152.15337964085916 0.5 L 152.15337964085916 3.5 L 159.15337964085916 0 L 152.15337964085916 -3.5 L 152.15337964085916 -0.5 L 141.29335699572255 -0.5 Z"/><text text-anchor="middle" pointer-events="none" font-size="8px" fill="#000000" x="88.57668982042958" y="3" font-family="Helvetica Neue, Helvetica, Arial, sans-serif">AlterationBiomarkerForDrug</text></g><g class="relationship" transform="translate(569.0335887766064 45.771347693380264) rotate(381.375724856994)"><path class="b-outline" fill="#A5ABB6" stroke="none" d="M 25 0.5 L 25.171023205113123 0.5 L 25.171023205113123 -0.5 L 25 -0.5 Z M 84.43768961746665 0.5 L 84.60871282257976 0.5 L 84.60871282257976 3.5 L 91.60871282257976 0 L 84.60871282257976 -3.5 L 84.60871282257976 -0.5 L 84.43768961746665 -0.5 Z"/><text text-anchor="middle" pointer-events="none" font-size="8px" fill="#000000" x="54.80435641128988" y="3" font-family="Helvetica Neue, Helvetica, Arial, sans-serif">AlterationBio…</text></g><g class="relationship" transform="translate(602.103431271262 -47.787938128134975) rotate(349.4315515121302)"><path class="b-outline" fill="#A5ABB6" stroke="none" d="M 25 0.5 L 26.162985021517684 0.5 L 26.162985021517684 -0.5 L 25 -0.5 Z M 80.99631708328526 0.5 L 82.15930210480295 0.5 L 82.15930210480295 3.5 L 89.15930210480295 0 L 82.15930210480295 -3.5 L 82.15930210480295 -0.5 L 80.99631708328526 -0.5 Z"/><text text-anchor="middle" pointer-events="none" font-size="8px" fill="#000000" x="53.57965105240147" y="3" font-family="Helvetica Neue, Helvetica, Arial, sans-serif">AlterationBi…</text></g><g class="relationship" transform="translate(602.103431271262 -47.787938128134975) rotate(528.3280335344026)"><path class="b-outline" fill="#A5ABB6" stroke="none" d="M 25 0.5 L 30.81378933238031 0.5 L 30.81378933238031 -0.5 L 25 -0.5 Z M 136.24712368296625 0.5 L 142.06091301534656 0.5 L 142.06091301534656 3.5 L 149.06091301534656 0 L 142.06091301534656 -3.5 L 142.06091301534656 -0.5 L 136.24712368296625 -0.5 Z"/><text text-anchor="middle" pointer-events="none" font-size="8px" fill="#000000" x="83.53045650767328" y="3" transform="rotate(180 83.53045650767328 0)" font-family="Helvetica Neue, Helvetica, Arial, sans-serif">AlterationBiomarkerForDrug</text></g><g class="relationship" transform="translate(602.103431271262 -47.787938128134975) rotate(385.2467685804204)"><path class="b-outline" fill="#A5ABB6" stroke="none" d="M 25 0.5 L 26.506288354886593 0.5 L 26.506288354886593 -0.5 L 25 -0.5 Z M 131.93962270547252 0.5 L 133.44591106035912 0.5 L 133.44591106035912 3.5 L 140.44591106035912 0 L 133.44591106035912 -3.5 L 133.44591106035912 -0.5 L 131.93962270547252 -0.5 Z"/><text text-anchor="middle" pointer-events="none" font-size="8px" fill="#000000" x="79.22295553017956" y="3" font-family="Helvetica Neue, Helvetica, Arial, sans-serif">AlterationBiomarkerForDrug</text></g><g class="relationship" transform="translate(602.103431271262 -47.787938128134975) rotate(420.9686028090483)"><path class="b-outline" fill="#A5ABB6" stroke="none" d="M 25 0.5 L 26.239983480155956 0.5 L 26.239983480155956 -0.5 L 25 -0.5 Z M 122.37331477898408 0.5 L 123.61329825914004 0.5 L 123.61329825914004 3.5 L 130.61329825914004 0 L 123.61329825914004 -3.5 L 123.61329825914004 -0.5 L 122.37331477898408 -0.5 Z"/><text text-anchor="middle" pointer-events="none" font-size="8px" fill="#000000" x="74.30664912957002" y="3" font-family="Helvetica Neue, Helvetica, Arial, sans-serif">AlterationBiomarkerFor…</text></g><g class="relationship" transform="translate(616.4899281282634 -146.3185090758505) rotate(398.4174551319096)"><path class="b-outline" fill="#A5ABB6" stroke="none" d="M 25 0.5 L 25.968393879112583 0.5 L 25.968393879112583 -0.5 L 25 -0.5 Z M 91.90172822969852 0.5 L 92.8701221088111 0.5 L 92.8701221088111 3.5 L 99.8701221088111 0 L 92.8701221088111 -3.5 L 92.8701221088111 -0.5 L 91.90172822969852 -0.5 Z"/><text text-anchor="middle" pointer-events="none" font-size="8px" fill="#000000" x="58.93506105440555" y="3" font-family="Helvetica Neue, Helvetica, Arial, sans-serif">AlterationBiom…</text></g><g class="relationship" transform="translate(616.4899281282634 -146.3185090758505) rotate(504.1128643990868)"><path class="b-outline" fill="#A5ABB6" stroke="none" d="M 25 0.5 L 57.862733245270306 0.5 L 57.862733245270306 -0.5 L 25 -0.5 Z M 163.29606759585624 0.5 L 196.15880084112655 0.5 L 196.15880084112655 3.5 L 203.15880084112655 0 L 196.15880084112655 -3.5 L 196.15880084112655 -0.5 L 163.29606759585624 -0.5 Z"/><text text-anchor="middle" pointer-events="none" font-size="8px" fill="#000000" x="110.57940042056327" y="3" transform="rotate(180 110.57940042056327 0)" font-family="Helvetica Neue, Helvetica, Arial, sans-serif">AlterationBiomarkerForDrug</text></g><g class="relationship" transform="translate(616.4899281282634 -146.3185090758505) rotate(411.34454302880675)"><path class="b-outline" fill="#A5ABB6" stroke="none" d="M 25 0.5 L 52.05114347405522 0.5 L 52.05114347405522 -0.5 L 25 -0.5 Z M 157.48447782464115 0.5 L 184.53562129869638 0.5 L 184.53562129869638 3.5 L 191.53562129869638 0 L 184.53562129869638 -3.5 L 184.53562129869638 -0.5 L 157.48447782464115 -0.5 Z"/><text text-anchor="middle" pointer-events="none" font-size="8px" fill="#000000" x="104.76781064934819" y="3" font-family="Helvetica Neue, Helvetica, Arial, sans-serif">AlterationBiomarkerForDrug</text></g><g class="relationship" transform="translate(616.4899281282634 -146.3185090758505) rotate(435.39443182196976)"><path class="b-outline" fill="#A5ABB6" stroke="none" d="M 25 0.5 L 64.99619993003792 0.5 L 64.99619993003792 -0.5 L 25 -0.5 Z M 170.42953428062384 0.5 L 210.42573421066177 0.5 L 210.42573421066177 3.5 L 217.42573421066177 0 L 210.42573421066177 -3.5 L 210.42573421066177 -0.5 L 170.42953428062384 -0.5 Z"/><text text-anchor="middle" pointer-events="none" font-size="8px" fill="#000000" x="117.71286710533089" y="3" font-family="Helvetica Neue, Helvetica, Arial, sans-serif">AlterationBiomarkerForDrug</text></g><g class="relationship" transform="translate(-833.8528881033419 100.21792721884532) rotate(417.79000764043303)"><path class="b-outline" fill="#A5ABB6" stroke="none" d="M 25 0.5 L 25.031762555981274 0.5 L 25.031762555981274 -0.5 L 25 -0.5 Z M 114.0650953806883 0.5 L 114.09685793666958 0.5 L 114.09685793666958 3.5 L 121.09685793666958 0 L 114.09685793666958 -3.5 L 114.09685793666958 -0.5 L 114.0650953806883 -0.5 Z"/><text text-anchor="middle" pointer-events="none" font-size="8px" fill="#000000" x="69.54842896833479" y="3" font-family="Helvetica Neue, Helvetica, Arial, sans-serif">AlterationBiomarkerF…</text></g><g class="relationship" transform="translate(-680.3001639518915 356.5889258650778) rotate(534.7968254144948)"><path class="b-outline" fill="#A5ABB6" stroke="none" d="M 25 0.5 L 26.49486414638092 0.5 L 26.49486414638092 -0.5 L 25 -0.5 Z M 110.62819544520904 0.5 L 112.12305959158996 0.5 L 112.12305959158996 3.5 L 119.12305959158996 0 L 112.12305959158996 -3.5 L 112.12305959158996 -0.5 L 110.62819544520904 -0.5 Z"/><text text-anchor="middle" pointer-events="none" font-size="8px" fill="#000000" x="68.56152979579498" y="3" transform="rotate(180 68.56152979579498 0)" font-family="Helvetica Neue, Helvetica, Arial, sans-serif">AlterationBiomarker…</text></g><g class="relationship" transform="translate(-680.3001639518915 356.5889258650778) rotate(452.03211627299834)"><path class="b-outline" fill="#A5ABB6" stroke="none" d="M 25 0.5 L 27.274873642802433 0.5 L 27.274873642802433 -0.5 L 25 -0.5 Z M 111.40820494163056 0.5 L 113.68307858443299 0.5 L 113.68307858443299 3.5 L 120.68307858443299 0 L 113.68307858443299 -3.5 L 113.68307858443299 -0.5 L 111.40820494163056 -0.5 Z"/><text text-anchor="middle" pointer-events="none" font-size="8px" fill="#000000" x="69.3415392922165" y="3" transform="rotate(180 69.3415392922165 0)" font-family="Helvetica Neue, Helvetica, Arial, sans-serif">AlterationBiomarker…</text></g><g class="relationship" transform="translate(-680.3001639518915 356.5889258650778) rotate(396.10323024933456)"><path class="b-outline" fill="#A5ABB6" stroke="none" d="M 25 0.5 L 27.44456176024842 0.5 L 27.44456176024842 -0.5 L 25 -0.5 Z M 111.57789305907654 0.5 L 114.02245481932496 0.5 L 114.02245481932496 3.5 L 121.02245481932496 0 L 114.02245481932496 -3.5 L 114.02245481932496 -0.5 L 111.57789305907654 -0.5 Z"/><text text-anchor="middle" pointer-events="none" font-size="8px" fill="#000000" x="69.51122740966248" y="3" font-family="Helvetica Neue, Helvetica, Arial, sans-serif">AlterationBiomarker…</text></g><g class="relationship" transform="translate(-680.3001639518915 356.5889258650778) rotate(240.31447581050168)"><path class="b-outline" fill="#A5ABB6" stroke="none" d="M 25 0.5 L 26.173801132019108 0.5 L 26.173801132019108 -0.5 L 25 -0.5 Z M 119.64046830731208 0.5 L 120.81426943933118 0.5 L 120.81426943933118 3.5 L 127.81426943933118 0 L 120.81426943933118 -3.5 L 120.81426943933118 -0.5 L 119.64046830731208 -0.5 Z"/><text text-anchor="middle" pointer-events="none" font-size="8px" fill="#000000" x="72.90713471966559" y="3" transform="rotate(180 72.90713471966559 0)" font-family="Helvetica Neue, Helvetica, Arial, sans-serif">AlterationBiomarkerFo…</text></g><g class="relationship" transform="translate(-62.92929353383701 -895.0978162916103) rotate(525.7614616400267)"><path class="b-outline" fill="#A5ABB6" stroke="none" d="M 25 0.5 L 27.105167980777168 0.5 L 27.105167980777168 -0.5 L 25 -0.5 Z M 110.77183210431232 0.5 L 112.87700008508949 0.5 L 112.87700008508949 3.5 L 119.87700008508949 0 L 112.87700008508949 -3.5 L 112.87700008508949 -0.5 L 110.77183210431232 -0.5 Z"/><text text-anchor="middle" pointer-events="none" font-size="8px" fill="#000000" x="68.93850004254475" y="3" transform="rotate(180 68.93850004254475 0)" font-family="Helvetica Neue, Helvetica, Arial, sans-serif">PatientCarriesSample</text></g><g class="relationship" transform="translate(-293.11406859427535 -197.34384611215978) rotate(496.8086707944719)"><path class="b-outline" fill="#A5ABB6" stroke="none" d="M 25 0.5 L 37.04617901276974 0.5 L 37.04617901276974 -0.5 L 25 -0.5 Z M 120.7128431363049 0.5 L 132.75902214907464 0.5 L 132.75902214907464 3.5 L 139.75902214907464 0 L 132.75902214907464 -3.5 L 132.75902214907464 -0.5 L 120.7128431363049 -0.5 Z"/><text text-anchor="middle" pointer-events="none" font-size="8px" fill="#000000" x="78.87951107453732" y="3" transform="rotate(180 78.87951107453732 0)" font-family="Helvetica Neue, Helvetica, Arial, sans-serif">PatientCarriesSample</text></g><g class="relationship" transform="translate(963.810992826341 13.404550949644209) rotate(468.70065945947374)"><path class="b-outline" fill="#A5ABB6" stroke="none" d="M 25 0.5 L 30.11737495902966 0.5 L 30.11737495902966 -0.5 L 25 -0.5 Z M 113.78403908256482 0.5 L 118.90141404159448 0.5 L 118.90141404159448 3.5 L 125.90141404159448 0 L 118.90141404159448 -3.5 L 118.90141404159448 -0.5 L 113.78403908256482 -0.5 Z"/><text text-anchor="middle" pointer-events="none" font-size="8px" fill="#000000" x="71.95070702079724" y="3" transform="rotate(180 71.95070702079724 0)" font-family="Helvetica Neue, Helvetica, Arial, sans-serif">PatientCarriesSample</text></g><g class="relationship" transform="translate(-210.00538586067938 59.89092151016473) rotate(362.1023933928355)"><path class="b-outline" fill="#A5ABB6" stroke="none" d="M 25 0.5 L 38.11831119788654 0.5 L 38.11831119788654 -0.5 L 25 -0.5 Z M 121.7849753214217 0.5 L 134.90328651930824 0.5 L 134.90328651930824 3.5 L 141.90328651930824 0 L 134.90328651930824 -3.5 L 134.90328651930824 -0.5 L 121.7849753214217 -0.5 Z"/><text text-anchor="middle" pointer-events="none" font-size="8px" fill="#000000" x="79.95164325965412" y="3" font-family="Helvetica Neue, Helvetica, Arial, sans-serif">PatientCarriesSample</text></g><g class="relationship" transform="translate(508.93413397690273 469.90708670493314) rotate(530.2197454248848)"><path class="b-outline" fill="#A5ABB6" stroke="none" d="M 25 0.5 L 73.08155338012907 0.5 L 73.08155338012907 -0.5 L 25 -0.5 Z M 156.74821750366422 0.5 L 204.8297708837933 0.5 L 204.8297708837933 3.5 L 211.8297708837933 0 L 204.8297708837933 -3.5 L 204.8297708837933 -0.5 L 156.74821750366422 -0.5 Z"/><text text-anchor="middle" pointer-events="none" font-size="8px" fill="#000000" x="114.91488544189664" y="3" transform="rotate(180 114.91488544189664 0)" font-family="Helvetica Neue, Helvetica, Arial, sans-serif">PatientCarriesSample</text></g><g class="relationship" transform="translate(-281.31237441524684 -341.85166955966) rotate(384.97178741141937)"><path class="b-outline" fill="#A5ABB6" stroke="none" d="M 25 0.5 L 51.80424033531226 0.5 L 51.80424033531226 -0.5 L 25 -0.5 Z M 135.47090445884743 0.5 L 162.27514479415967 0.5 L 162.27514479415967 3.5 L 169.27514479415967 0 L 162.27514479415967 -3.5 L 162.27514479415967 -0.5 L 135.47090445884743 -0.5 Z"/><text text-anchor="middle" pointer-events="none" font-size="8px" fill="#000000" x="93.63757239707984" y="3" font-family="Helvetica Neue, Helvetica, Arial, sans-serif">PatientCarriesSample</text></g><g class="relationship" transform="translate(-583.653054222847 -470.5243658480934) rotate(465.8671063241107)"><path class="b-outline" fill="#A5ABB6" stroke="none" d="M 25 0.5 L 26.463540619308105 0.5 L 26.463540619308105 -0.5 L 25 -0.5 Z M 110.13020474284326 0.5 L 111.59374536215137 0.5 L 111.59374536215137 3.5 L 118.59374536215137 0 L 111.59374536215137 -3.5 L 111.59374536215137 -0.5 L 110.13020474284326 -0.5 Z"/><text text-anchor="middle" pointer-events="none" font-size="8px" fill="#000000" x="68.29687268107568" y="3" transform="rotate(180 68.29687268107568 0)" font-family="Helvetica Neue, Helvetica, Arial, sans-serif">PatientCarriesSample</text></g><g class="relationship" transform="translate(104.59900393332691 500.2653317413299) rotate(532.4879261459247)"><path class="b-outline" fill="#A5ABB6" stroke="none" d="M 25 0.5 L 50.368492180440654 0.5 L 50.368492180440654 -0.5 L 25 -0.5 Z M 134.0351563039758 0.5 L 159.40364848441646 0.5 L 159.40364848441646 3.5 L 166.40364848441646 0 L 159.40364848441646 -3.5 L 159.40364848441646 -0.5 L 134.0351563039758 -0.5 Z"/><text text-anchor="middle" pointer-events="none" font-size="8px" fill="#000000" x="92.20182424220823" y="3" transform="rotate(180 92.20182424220823 0)" font-family="Helvetica Neue, Helvetica, Arial, sans-serif">PatientCarriesSample</text></g><g class="relationship" transform="translate(200.392861924776 193.93555276568716) rotate(421.6618807860316)"><path class="b-outline" fill="#A5ABB6" stroke="none" d="M 25 0.5 L 25.238386997610405 0.5 L 25.238386997610405 -0.5 L 25 -0.5 Z M 99.60505569878228 0.5 L 99.84344269639269 0.5 L 99.84344269639269 3.5 L 106.84344269639269 0 L 99.84344269639269 -3.5 L 99.84344269639269 -0.5 L 99.60505569878228 -0.5 Z"/><text text-anchor="middle" pointer-events="none" font-size="8px" fill="#000000" x="62.42172134819634" y="3" font-family="Helvetica Neue, Helvetica, Arial, sans-serif">PatientCarriesSa…</text></g><g class="relationship" transform="translate(17.559293366218462 864.3767501739414) rotate(186.67279282526647)"><path class="b-outline" fill="#A5ABB6" stroke="none" d="M 25 0.5 L 26.76939771577635 0.5 L 26.76939771577635 -0.5 L 25 -0.5 Z M 110.4360618393115 0.5 L 112.20545955508786 0.5 L 112.20545955508786 3.5 L 119.20545955508786 0 L 112.20545955508786 -3.5 L 112.20545955508786 -0.5 L 110.4360618393115 -0.5 Z"/><text text-anchor="middle" pointer-events="none" font-size="8px" fill="#000000" x="68.60272977754393" y="3" transform="rotate(180 68.60272977754393 0)" font-family="Helvetica Neue, Helvetica, Arial, sans-serif">PatientCarriesSample</text></g><g class="relationship" transform="translate(-335.7855453011227 -792.4241752987382) rotate(532.9860074671783)"><path class="b-outline" fill="#A5ABB6" stroke="none" d="M 25 0.5 L 27.012095169785383 0.5 L 27.012095169785383 -0.5 L 25 -0.5 Z M 110.61209364390648 0.5 L 112.62418881369186 0.5 L 112.62418881369186 3.5 L 119.62418881369186 0 L 112.62418881369186 -3.5 L 112.62418881369186 -0.5 L 110.61209364390648 -0.5 Z"/><text text-anchor="middle" pointer-events="none" font-size="8px" fill="#000000" x="68.81209440684593" y="3" transform="rotate(180 68.81209440684593 0)" font-family="Helvetica Neue, Helvetica, Arial, sans-serif">AlterationAffectsGene</text></g><g class="relationship" transform="translate(-440.59504420502265 74.3483939283463) rotate(451.79424149998874)"><path class="b-outline" fill="#A5ABB6" stroke="none" d="M 25 0.5 L 27.48862958050924 0.5 L 27.48862958050924 -0.5 L 25 -0.5 Z M 111.08862805463033 0.5 L 113.57725763513957 0.5 L 113.57725763513957 3.5 L 120.57725763513957 0 L 113.57725763513957 -3.5 L 113.57725763513957 -0.5 L 111.08862805463033 -0.5 Z"/><text text-anchor="middle" pointer-events="none" font-size="8px" fill="#000000" x="69.28862881756979" y="3" transform="rotate(180 69.28862881756979 0)" font-family="Helvetica Neue, Helvetica, Arial, sans-serif">AlterationAffectsGene</text></g><g class="relationship" transform="translate(847.1372739994896 303.495425232348) rotate(350.00561598844683)"><path class="b-outline" fill="#A5ABB6" stroke="none" d="M 25 0.5 L 25.685563651452227 0.5 L 25.685563651452227 -0.5 L 25 -0.5 Z M 109.28556212557332 0.5 L 109.97112577702555 0.5 L 109.97112577702555 3.5 L 116.97112577702555 0 L 109.97112577702555 -3.5 L 109.97112577702555 -0.5 L 109.28556212557332 -0.5 Z"/><text text-anchor="middle" pointer-events="none" font-size="8px" fill="#000000" x="67.48556288851277" y="3" font-family="Helvetica Neue, Helvetica, Arial, sans-serif">AlterationAffectsGene</text></g><g class="relationship" transform="translate(127.32443153766278 77.27769212231918) rotate(361.5762649255243)"><path class="b-outline" fill="#A5ABB6" stroke="none" d="M 25 0.5 L 34.12550823047401 0.5 L 34.12550823047401 -0.5 L 25 -0.5 Z M 117.7255067045951 0.5 L 126.85101493506912 0.5 L 126.85101493506912 3.5 L 133.85101493506912 0 L 126.85101493506912 -3.5 L 126.85101493506912 -0.5 L 117.7255067045951 -0.5 Z"/><text text-anchor="middle" pointer-events="none" font-size="8px" fill="#000000" x="75.92550746753456" y="3" font-family="Helvetica Neue, Helvetica, Arial, sans-serif">AlterationAffectsGene</text></g><g class="relationship" transform="translate(178.62468933233026 361.4847243168217) rotate(291.01269071687875)"><path class="b-outline" fill="#A5ABB6" stroke="none" d="M 25 0.5 L 104.58598001906347 0.5 L 104.58598001906347 -0.5 L 25 -0.5 Z M 188.18597849318456 0.5 L 267.77195851224803 0.5 L 267.77195851224803 3.5 L 274.77195851224803 0 L 267.77195851224803 -3.5 L 267.77195851224803 -0.5 L 188.18597849318456 -0.5 Z"/><text text-anchor="middle" pointer-events="none" font-size="8px" fill="#000000" x="146.38597925612402" y="3" font-family="Helvetica Neue, Helvetica, Arial, sans-serif">AlterationAffectsGene</text></g><g class="relationship" transform="translate(110.63721369387787 -157.99480891294985) rotate(529.9314144675151)"><path class="b-outline" fill="#A5ABB6" stroke="none" d="M 25 0.5 L 32.86076594123641 0.5 L 32.86076594123641 -0.5 L 25 -0.5 Z M 116.4607644153575 0.5 L 124.32153035659391 0.5 L 124.32153035659391 3.5 L 131.3215303565939 0 L 124.32153035659391 -3.5 L 124.32153035659391 -0.5 L 116.4607644153575 -0.5 Z"/><text text-anchor="middle" pointer-events="none" font-size="8px" fill="#000000" x="74.66076517829696" y="3" transform="rotate(180 74.66076517829696 0)" font-family="Helvetica Neue, Helvetica, Arial, sans-serif">AlterationAffectsGene</text></g><g class="relationship" transform="translate(-760.2372330734349 -281.4134986077588) rotate(483.8956163975006)"><path class="b-outline" fill="#A5ABB6" stroke="none" d="M 25 0.5 L 26.12146229489123 0.5 L 26.12146229489123 -0.5 L 25 -0.5 Z M 109.72146076901232 0.5 L 110.84292306390356 0.5 L 110.84292306390356 3.5 L 117.84292306390356 0 L 110.84292306390356 -3.5 L 110.84292306390356 -0.5 L 109.72146076901232 -0.5 Z"/><text text-anchor="middle" pointer-events="none" font-size="8px" fill="#000000" x="67.92146153195178" y="3" transform="rotate(180 67.92146153195178 0)" font-family="Helvetica Neue, Helvetica, Arial, sans-serif">AlterationAffectsGene</text></g><g class="relationship" transform="translate(-54.02034352317378 350.42675343950384) rotate(321.68376914072616)"><path class="b-outline" fill="#A5ABB6" stroke="none" d="M 25 0.5 L 171.45716854998383 0.5 L 171.45716854998383 -0.5 L 25 -0.5 Z M 255.05716702410493 0.5 L 401.51433557408876 0.5 L 401.51433557408876 3.5 L 408.51433557408876 0 L 401.51433557408876 -3.5 L 401.51433557408876 -0.5 L 255.05716702410493 -0.5 Z"/><text text-anchor="middle" pointer-events="none" font-size="8px" fill="#000000" x="213.25716778704438" y="3" font-family="Helvetica Neue, Helvetica, Arial, sans-serif">AlterationAffectsGene</text></g><g class="relationship" transform="translate(353.4972304734563 354.73019081828494) rotate(256.13940708626683)"><path class="b-outline" fill="#A5ABB6" stroke="none" d="M 25 0.5 L 95.33657903968401 0.5 L 95.33657903968401 -0.5 L 25 -0.5 Z M 178.9365775138051 0.5 L 249.27315655348912 0.5 L 249.27315655348912 3.5 L 256.2731565534891 0 L 249.27315655348912 -3.5 L 249.27315655348912 -0.5 L 178.9365775138051 -0.5 Z"/><text text-anchor="middle" pointer-events="none" font-size="8px" fill="#000000" x="137.13657827674456" y="3" transform="rotate(180 137.13657827674456 0)" font-family="Helvetica Neue, Helvetica, Arial, sans-serif">AlterationAffectsGene</text></g><g class="relationship" transform="translate(-268.2844791024732 808.3417308565113) rotate(192.11049528002667)"><path class="b-outline" fill="#A5ABB6" stroke="none" d="M 25 0.5 L 27.00828362727637 0.5 L 27.00828362727637 -0.5 L 25 -0.5 Z M 110.60828210139746 0.5 L 112.61656572867383 0.5 L 112.61656572867383 3.5 L 119.61656572867383 0 L 112.61656572867383 -3.5 L 112.61656572867383 -0.5 L 110.60828210139746 -0.5 Z"/><text text-anchor="middle" pointer-events="none" font-size="8px" fill="#000000" x="68.80828286433692" y="3" transform="rotate(180 68.80828286433692 0)" font-family="Helvetica Neue, Helvetica, Arial, sans-serif">AlterationAffectsGene</text></g></g><g class="layer nodes"><g class="node" aria-label="graph-node1092" transform="translate(-203.35569124853896,-859.4639562912206)"><circle class="b-outline" cx="0" cy="0" r="25" fill="#DA7194" stroke="#cc3c6c" stroke-width="2px"/><text class="caption" text-anchor="middle" pointer-events="none" x="0" y="5" font-size="10px" fill="#FFFFFF" font-family="Helvetica Neue, Helvetica, Arial, sans-serif"> CC5333…</text></g><g class="node" aria-label="graph-node546" transform="translate(-335.7855453011227,-792.4241752987382)"><circle class="b-outline" cx="0" cy="0" r="25" fill="#57C7E3" stroke="#23b3d7" stroke-width="2px"/><text class="caption" text-anchor="middle" pointer-events="none" x="0" y="5" font-size="10px" fill="#2A2C34" font-family="Helvetica Neue, Helvetica, Arial, sans-serif"> 1_snv:al…</text></g><g class="node" aria-label="graph-node1093" transform="translate(-413.2352936926878,-84.576711447951)"><circle class="b-outline" cx="0" cy="0" r="25" fill="#DA7194" stroke="#cc3c6c" stroke-width="2px"/><text class="caption" text-anchor="middle" pointer-events="none" x="0" y="5" font-size="10px" fill="#FFFFFF" font-family="Helvetica Neue, Helvetica, Arial, sans-serif"> EX1_pO…</text></g><g class="node" aria-label="graph-node547" transform="translate(-440.59504420502265,74.3483939283463)"><circle class="b-outline" cx="0" cy="0" r="25" fill="#57C7E3" stroke="#23b3d7" stroke-width="2px"/><text class="caption" text-anchor="middle" pointer-events="none" x="0" y="5" font-size="10px" fill="#2A2C34" font-family="Helvetica Neue, Helvetica, Arial, sans-serif"> 2_snv:al…</text></g><g class="node" aria-label="graph-node1094" transform="translate(915.4283940412422,156.33936439462997)"><circle class="b-outline" cx="0" cy="0" r="25" fill="#DA7194" stroke="#cc3c6c" stroke-width="2px"/><text class="caption" text-anchor="middle" pointer-events="none" x="0" y="5" font-size="10px" fill="#FFFFFF" font-family="Helvetica Neue, Helvetica, Arial, sans-serif"> CC2207…</text></g><g class="node" aria-label="graph-node548" transform="translate(847.1372739994896,303.495425232348)"><circle class="b-outline" cx="0" cy="0" r="25" fill="#57C7E3" stroke="#23b3d7" stroke-width="2px"/><text class="caption" text-anchor="middle" pointer-events="none" x="0" y="5" font-size="10px" fill="#2A2C34" font-family="Helvetica Neue, Helvetica, Arial, sans-serif"> 3_snv:al…</text></g><g class="node" aria-label="graph-node1095" transform="translate(-43.21444825175024,66.01384421754919)"><circle class="b-outline" cx="0" cy="0" r="25" fill="#DA7194" stroke="#cc3c6c" stroke-width="2px"/><text class="caption" text-anchor="middle" pointer-events="none" x="0" y="5" font-size="10px" fill="#FFFFFF" font-family="Helvetica Neue, Helvetica, Arial, sans-serif"> CC0638…</text></g><g class="node" aria-label="graph-node549" transform="translate(127.32443153766278,77.27769212231918)"><circle class="b-outline" cx="0" cy="0" r="25" fill="#57C7E3" stroke="#23b3d7" stroke-width="2px"/><text class="caption" text-anchor="middle" pointer-events="none" x="0" y="5" font-size="10px" fill="#2A2C34" font-family="Helvetica Neue, Helvetica, Arial, sans-serif"> 4_snv:al…</text></g><g class="node" aria-label="graph-node1096" transform="translate(275.5463290372649,510.1373350552428)"><circle class="b-outline" cx="0" cy="0" r="25" fill="#DA7194" stroke="#cc3c6c" stroke-width="2px"/><text class="caption" text-anchor="middle" pointer-events="none" x="0" y="5" font-size="10px" fill="#FFFFFF" font-family="Helvetica Neue, Helvetica, Arial, sans-serif"> CC0047…</text></g><g class="node" aria-label="graph-node550" transform="translate(178.62468933233026,361.4847243168217)"><circle class="b-outline" cx="0" cy="0" r="25" fill="#57C7E3" stroke="#23b3d7" stroke-width="2px"/><text class="caption" text-anchor="middle" pointer-events="none" x="0" y="5" font-size="10px" fill="#2A2C34" font-family="Helvetica Neue, Helvetica, Arial, sans-serif"> 5_snv:al…</text></g><g class="node" aria-label="graph-node1097" transform="translate(-105.1988908774418,-259.8341543511939)"><circle class="b-outline" cx="0" cy="0" r="25" fill="#DA7194" stroke="#cc3c6c" stroke-width="2px"/><text class="caption" text-anchor="middle" pointer-events="none" x="0" y="5" font-size="10px" fill="#FFFFFF" font-family="Helvetica Neue, Helvetica, Arial, sans-serif"> CC1860…</text></g><g class="node" aria-label="graph-node551" transform="translate(110.63721369387787,-157.99480891294985)"><circle class="b-outline" cx="0" cy="0" r="25" fill="#57C7E3" stroke="#23b3d7" stroke-width="2px"/><text class="caption" text-anchor="middle" pointer-events="none" x="0" y="5" font-size="10px" fill="#2A2C34" font-family="Helvetica Neue, Helvetica, Arial, sans-serif"> 6_snv:al…</text></g><g class="node" aria-label="graph-node1098" transform="translate(-622.9125943947091,-332.40176736173305)"><circle class="b-outline" cx="0" cy="0" r="25" fill="#DA7194" stroke="#cc3c6c" stroke-width="2px"/><text class="caption" text-anchor="middle" pointer-events="none" x="0" y="5" font-size="10px" fill="#FFFFFF" font-family="Helvetica Neue, Helvetica, Arial, sans-serif"> CC3307…</text></g><g class="node" aria-label="graph-node552" transform="translate(-760.2372330734349,-281.4134986077588)"><circle class="b-outline" cx="0" cy="0" r="25" fill="#57C7E3" stroke="#23b3d7" stroke-width="2px"/><text class="caption" text-anchor="middle" pointer-events="none" x="0" y="5" font-size="10px" fill="#2A2C34" font-family="Helvetica Neue, Helvetica, Arial, sans-serif"> 7_snv:al…</text></g><g class="node" aria-label="graph-node1099" transform="translate(-85.16189092115422,525.2885097403894)"><circle class="b-outline" cx="0" cy="0" r="25" fill="#DA7194" stroke="#cc3c6c" stroke-width="2px"/><text class="caption" text-anchor="middle" pointer-events="none" x="0" y="5" font-size="10px" fill="#FFFFFF" font-family="Helvetica Neue, Helvetica, Arial, sans-serif"> CC9256…</text></g><g class="node" aria-label="graph-node553" transform="translate(-54.02034352317378,350.42675343950384)"><circle class="b-outline" cx="0" cy="0" r="25" fill="#57C7E3" stroke="#23b3d7" stroke-width="2px"/><text class="caption" text-anchor="middle" pointer-events="none" x="0" y="5" font-size="10px" fill="#2A2C34" font-family="Helvetica Neue, Helvetica, Arial, sans-serif"> 8_snv:al…</text></g><g class="node" aria-label="graph-node1100" transform="translate(262.9755018411511,309.97910736108173)"><circle class="b-outline" cx="0" cy="0" r="25" fill="#DA7194" stroke="#cc3c6c" stroke-width="2px"/><text class="caption" text-anchor="middle" pointer-events="none" x="0" y="5" font-size="10px" fill="#FFFFFF" font-family="Helvetica Neue, Helvetica, Arial, sans-serif"> CC8958…</text></g><g class="node" aria-label="graph-node554" transform="translate(353.4972304734563,354.73019081828494)"><circle class="b-outline" cx="0" cy="0" r="25" fill="#57C7E3" stroke="#23b3d7" stroke-width="2px"/><text class="caption" text-anchor="middle" pointer-events="none" x="0" y="5" font-size="10px" fill="#2A2C34" font-family="Helvetica Neue, Helvetica, Arial, sans-serif"> 9_snv:al…</text></g><g class="node" aria-label="graph-node1101" transform="translate(-125.66930964102856,847.6202038088186)"><circle class="b-outline" cx="0" cy="0" r="25" fill="#DA7194" stroke="#cc3c6c" stroke-width="2px"/><text class="caption" text-anchor="middle" pointer-events="none" x="0" y="5" font-size="10px" fill="#FFFFFF" font-family="Helvetica Neue, Helvetica, Arial, sans-serif"> CC1492…</text></g><g class="node" aria-label="graph-node555" transform="translate(-268.2844791024732,808.3417308565113)"><circle class="b-outline" cx="0" cy="0" r="25" fill="#57C7E3" stroke="#23b3d7" stroke-width="2px"/><text class="caption" text-anchor="middle" pointer-events="none" x="0" y="5" font-size="10px" fill="#2A2C34" font-family="Helvetica Neue, Helvetica, Arial, sans-serif"> 10_snv:…</text></g><g class="node" aria-label="graph-node1638" transform="translate(-390.711690330907,-658.9498612417755)"><circle class="b-outline" cx="0" cy="0" r="25" fill="#604A0E" stroke="#423204" stroke-width="2px"/><text class="caption" text-anchor="middle" pointer-events="none" x="0" y="5" font-size="10px" fill="#FFFFFF" font-family="Helvetica Neue, Helvetica, Arial, sans-serif"> LATS1:L…</text></g><g class="node" aria-label="graph-node1639" transform="translate(-584.8282292871726,87.6058591291829)"><circle class="b-outline" cx="0" cy="0" r="25" fill="#604A0E" stroke="#423204" stroke-width="2px"/><text class="caption" text-anchor="middle" pointer-events="none" x="0" y="5" font-size="10px" fill="#FFFFFF" font-family="Helvetica Neue, Helvetica, Arial, sans-serif"> BRCA1:…</text></g><g class="node" aria-label="graph-node1640" transform="translate(790.5138719659969,438.9489268755494)"><circle class="b-outline" cx="0" cy="0" r="25" fill="#604A0E" stroke="#423204" stroke-width="2px"/><text class="caption" text-anchor="middle" pointer-events="none" x="0" y="5" font-size="10px" fill="#FFFFFF" font-family="Helvetica Neue, Helvetica, Arial, sans-serif"> ARID1B:…</text></g><g class="node" aria-label="graph-node1641" transform="translate(104.24817587509284,218.44148744530764)"><circle class="b-outline" cx="0" cy="0" r="25" fill="#604A0E" stroke="#423204" stroke-width="2px"/><text class="caption" text-anchor="middle" pointer-events="none" x="0" y="5" font-size="10px" fill="#FFFFFF" font-family="Helvetica Neue, Helvetica, Arial, sans-serif"> TP53:Lik…</text></g><g class="node" aria-label="graph-node1642" transform="translate(-78.09600154160154,-663.3295778869476)"><circle class="b-outline" cx="0" cy="0" r="25" fill="#604A0E" stroke="#423204" stroke-width="2px"/><text class="caption" text-anchor="middle" pointer-events="none" x="0" y="5" font-size="10px" fill="#FFFFFF" font-family="Helvetica Neue, Helvetica, Arial, sans-serif"> ARID2:L…</text></g><g class="node" aria-label="graph-node1643" transform="translate(-796.9932699995509,-420.05936416552925)"><circle class="b-outline" cx="0" cy="0" r="25" fill="#604A0E" stroke="#423204" stroke-width="2px"/><text class="caption" text-anchor="middle" pointer-events="none" x="0" y="5" font-size="10px" fill="#FFFFFF" font-family="Helvetica Neue, Helvetica, Arial, sans-serif"> TBL2:Un…</text></g><g class="node" aria-label="graph-node1644" transform="translate(-310.76258646181003,670.5514197584654)"><circle class="b-outline" cx="0" cy="0" r="25" fill="#604A0E" stroke="#423204" stroke-width="2px"/><text class="caption" text-anchor="middle" pointer-events="none" x="0" y="5" font-size="10px" fill="#FFFFFF" font-family="Helvetica Neue, Helvetica, Arial, sans-serif"> ADAM1…</text></g><g class="node" aria-label="graph-node556" transform="translate(306.439494566502,-297.65785103347525)"><circle class="b-outline" cx="0" cy="0" r="25" fill="#57C7E3" stroke="#23b3d7" stroke-width="2px"/><text class="caption" text-anchor="middle" pointer-events="none" x="0" y="5" font-size="10px" fill="#2A2C34" font-family="Helvetica Neue, Helvetica, Arial, sans-serif"> BRCA1:…</text></g><g class="node" aria-label="graph-node2184" transform="translate(219.8377544991878,-360.6017442923021)"><circle class="b-outline" cx="0" cy="0" r="25" fill="#FFC454" stroke="#d7a013" stroke-width="2px"/><text class="caption" text-anchor="middle" pointer-events="none" x="0" y="5" font-size="10px" fill="#2A2C34" font-family="Helvetica Neue, Helvetica, Arial, sans-serif"> Olaparib…</text></g><g class="node" aria-label="graph-node2185" transform="translate(218.86809574534774,-459.08956319918633)"><circle class="b-outline" cx="0" cy="0" r="25" fill="#FFC454" stroke="#d7a013" stroke-width="2px"/><text class="caption" text-anchor="middle" pointer-events="none" x="0" y="5" font-size="10px" fill="#2A2C34" font-family="Helvetica Neue, Helvetica, Arial, sans-serif"> Olaparib…</text></g><g class="node" aria-label="graph-node2186" transform="translate(392.0208612416377,-458.9111977633194)"><circle class="b-outline" cx="0" cy="0" r="25" fill="#FFC454" stroke="#d7a013" stroke-width="2px"/><text class="caption" text-anchor="middle" pointer-events="none" x="0" y="5" font-size="10px" fill="#2A2C34" font-family="Helvetica Neue, Helvetica, Arial, sans-serif"> Rucapar…</text></g><g class="node" aria-label="graph-node2187" transform="translate(135.41440734156265,-407.5407595170169)"><circle class="b-outline" cx="0" cy="0" r="25" fill="#FFC454" stroke="#d7a013" stroke-width="2px"/><text class="caption" text-anchor="middle" pointer-events="none" x="0" y="5" font-size="10px" fill="#2A2C34" font-family="Helvetica Neue, Helvetica, Arial, sans-serif"> Nirapari…</text></g><g class="node" aria-label="graph-node2188" transform="translate(305.5427554660986,-507.4078279776152)"><circle class="b-outline" cx="0" cy="0" r="25" fill="#FFC454" stroke="#d7a013" stroke-width="2px"/><text class="caption" text-anchor="middle" pointer-events="none" x="0" y="5" font-size="10px" fill="#2A2C34" font-family="Helvetica Neue, Helvetica, Arial, sans-serif"> Talazop…</text></g><g class="node" aria-label="graph-node2189" transform="translate(476.4058992607161,-406.6651320336725)"><circle class="b-outline" cx="0" cy="0" r="25" fill="#FFC454" stroke="#d7a013" stroke-width="2px"/><text class="caption" text-anchor="middle" pointer-events="none" x="0" y="5" font-size="10px" fill="#2A2C34" font-family="Helvetica Neue, Helvetica, Arial, sans-serif"> Olaparib…</text></g><g class="node" aria-label="graph-node2190" transform="translate(135.47824826295493,-309.32333704066133)"><circle class="b-outline" cx="0" cy="0" r="25" fill="#FFC454" stroke="#d7a013" stroke-width="2px"/><text class="caption" text-anchor="middle" pointer-events="none" x="0" y="5" font-size="10px" fill="#2A2C34" font-family="Helvetica Neue, Helvetica, Arial, sans-serif"> Talazop…</text></g><g class="node" aria-label="graph-node2191" transform="translate(354.3096711600065,-157.23481516270454)"><circle class="b-outline" cx="0" cy="0" r="25" fill="#FFC454" stroke="#d7a013" stroke-width="2px"/><text class="caption" text-anchor="middle" pointer-events="none" x="0" y="5" font-size="10px" fill="#2A2C34" font-family="Helvetica Neue, Helvetica, Arial, sans-serif"> Olaparib…</text></g><g class="node" aria-label="graph-node2192" transform="translate(474.45506536720825,-307.3477565703444)"><circle class="b-outline" cx="0" cy="0" r="25" fill="#FFC454" stroke="#d7a013" stroke-width="2px"/><text class="caption" text-anchor="middle" pointer-events="none" x="0" y="5" font-size="10px" fill="#2A2C34" font-family="Helvetica Neue, Helvetica, Arial, sans-serif"> Rucapar…</text></g><g class="node" aria-label="graph-node2193" transform="translate(255.1427976112009,-152.79175672769082)"><circle class="b-outline" cx="0" cy="0" r="25" fill="#FFC454" stroke="#d7a013" stroke-width="2px"/><text class="caption" text-anchor="middle" pointer-events="none" x="0" y="5" font-size="10px" fill="#2A2C34" font-family="Helvetica Neue, Helvetica, Arial, sans-serif"> Nirapari…</text></g><g class="node" aria-label="graph-node2194" transform="translate(184.93158472601226,-223.59819044721738)"><circle class="b-outline" cx="0" cy="0" r="25" fill="#FFC454" stroke="#d7a013" stroke-width="2px"/><text class="caption" text-anchor="middle" pointer-events="none" x="0" y="5" font-size="10px" fill="#2A2C34" font-family="Helvetica Neue, Helvetica, Arial, sans-serif"> Olaparib…</text></g><g class="node" aria-label="graph-node2195" transform="translate(304.7246171303358,-411.6048276965308)"><circle class="b-outline" cx="0" cy="0" r="25" fill="#FFC454" stroke="#d7a013" stroke-width="2px"/><text class="caption" text-anchor="middle" pointer-events="none" x="0" y="5" font-size="10px" fill="#2A2C34" font-family="Helvetica Neue, Helvetica, Arial, sans-serif"> PARP_in…</text></g><g class="node" aria-label="graph-node2196" transform="translate(392.03035979251973,-360.53956578609603)"><circle class="b-outline" cx="0" cy="0" r="25" fill="#FFC454" stroke="#d7a013" stroke-width="2px"/><text class="caption" text-anchor="middle" pointer-events="none" x="0" y="5" font-size="10px" fill="#2A2C34" font-family="Helvetica Neue, Helvetica, Arial, sans-serif"> PARP_in…</text></g><g class="node" aria-label="graph-node2197" transform="translate(431.6417650169205,-12.573995186034342)"><circle class="b-outline" cx="0" cy="0" r="25" fill="#FFC454" stroke="#d7a013" stroke-width="2px"/><text class="caption" text-anchor="middle" pointer-events="none" x="0" y="5" font-size="10px" fill="#2A2C34" font-family="Helvetica Neue, Helvetica, Arial, sans-serif"> WEE1_i…</text></g><g class="node" aria-label="graph-node2198" transform="translate(433.63217586073443,-216.7993873072217)"><circle class="b-outline" cx="0" cy="0" r="25" fill="#FFC454" stroke="#d7a013" stroke-width="2px"/><text class="caption" text-anchor="middle" pointer-events="none" x="0" y="5" font-size="10px" fill="#2A2C34" font-family="Helvetica Neue, Helvetica, Arial, sans-serif"> Platinum…</text></g><g class="node" aria-label="graph-node557" transform="translate(590.8797248220715,142.32746494935986)"><circle class="b-outline" cx="0" cy="0" r="25" fill="#57C7E3" stroke="#23b3d7" stroke-width="2px"/><text class="caption" text-anchor="middle" pointer-events="none" x="0" y="5" font-size="10px" fill="#2A2C34" font-family="Helvetica Neue, Helvetica, Arial, sans-serif"> TP53:ch…</text></g><g class="node" aria-label="graph-node2199" transform="translate(714.3261918297443,-68.72590053351777)"><circle class="b-outline" cx="0" cy="0" r="25" fill="#FFC454" stroke="#d7a013" stroke-width="2px"/><text class="caption" text-anchor="middle" pointer-events="none" x="0" y="5" font-size="10px" fill="#2A2C34" font-family="Helvetica Neue, Helvetica, Arial, sans-serif"> HSP90_i…</text></g><g class="node" aria-label="graph-node2200" transform="translate(751.7458168859916,22.777676119349817)"><circle class="b-outline" cx="0" cy="0" r="25" fill="#FFC454" stroke="#d7a013" stroke-width="2px"/><text class="caption" text-anchor="middle" pointer-events="none" x="0" y="5" font-size="10px" fill="#2A2C34" font-family="Helvetica Neue, Helvetica, Arial, sans-serif"> Pazopan…</text></g><g class="node" aria-label="graph-node2201" transform="translate(677.6208259922903,88.2731573019566)"><circle class="b-outline" cx="0" cy="0" r="25" fill="#FFC454" stroke="#d7a013" stroke-width="2px"/><text class="caption" text-anchor="middle" pointer-events="none" x="0" y="5" font-size="10px" fill="#2A2C34" font-family="Helvetica Neue, Helvetica, Arial, sans-serif"> Cisplatin…</text></g><g class="node" aria-label="graph-node558" transform="translate(569.0335887766064,45.771347693380264)"><circle class="b-outline" cx="0" cy="0" r="25" fill="#57C7E3" stroke="#23b3d7" stroke-width="2px"/><text class="caption" text-anchor="middle" pointer-events="none" x="0" y="5" font-size="10px" fill="#2A2C34" font-family="Helvetica Neue, Helvetica, Arial, sans-serif"> TP53:ch…</text></g><g class="node" aria-label="graph-node559" transform="translate(602.103431271262,-47.787938128134975)"><circle class="b-outline" cx="0" cy="0" r="25" fill="#57C7E3" stroke="#23b3d7" stroke-width="2px"/><text class="caption" text-anchor="middle" pointer-events="none" x="0" y="5" font-size="10px" fill="#2A2C34" font-family="Helvetica Neue, Helvetica, Arial, sans-serif"> TP53:ch…</text></g><g class="node" aria-label="graph-node560" transform="translate(616.4899281282634,-146.3185090758505)"><circle class="b-outline" cx="0" cy="0" r="25" fill="#57C7E3" stroke="#23b3d7" stroke-width="2px"/><text class="caption" text-anchor="middle" pointer-events="none" x="0" y="5" font-size="10px" fill="#2A2C34" font-family="Helvetica Neue, Helvetica, Arial, sans-serif"> TP53:ch…</text></g><g class="node" aria-label="graph-node561" transform="translate(-833.8528881033419,100.21792721884532)"><circle class="b-outline" cx="0" cy="0" r="25" fill="#57C7E3" stroke="#23b3d7" stroke-width="2px"/><text class="caption" text-anchor="middle" pointer-events="none" x="0" y="5" font-size="10px" fill="#2A2C34" font-family="Helvetica Neue, Helvetica, Arial, sans-serif"> CCNE1:…</text></g><g class="node" aria-label="graph-node2202" transform="translate(-755.9797793342758,223.83051084045164)"><circle class="b-outline" cx="0" cy="0" r="25" fill="#FFC454" stroke="#d7a013" stroke-width="2px"/><text class="caption" text-anchor="middle" pointer-events="none" x="0" y="5" font-size="10px" fill="#2A2C34" font-family="Helvetica Neue, Helvetica, Arial, sans-serif"> CDK2_i…</text></g><g class="node" aria-label="graph-node562" transform="translate(-680.3001639518915,356.5889258650778)"><circle class="b-outline" cx="0" cy="0" r="25" fill="#57C7E3" stroke="#23b3d7" stroke-width="2px"/><text class="caption" text-anchor="middle" pointer-events="none" x="0" y="5" font-size="10px" fill="#2A2C34" font-family="Helvetica Neue, Helvetica, Arial, sans-serif"> CCNE1:…</text></g><g class="node" aria-label="graph-node2203" transform="translate(-823.8293465202463,369.65912315895434)"><circle class="b-outline" cx="0" cy="0" r="25" fill="#FFC454" stroke="#d7a013" stroke-width="2px"/><text class="caption" text-anchor="middle" pointer-events="none" x="0" y="5" font-size="10px" fill="#2A2C34" font-family="Helvetica Neue, Helvetica, Arial, sans-serif"> Lunreser…</text></g><g class="node" aria-label="graph-node2204" transform="translate(-685.4660399460382,502.18038547398197)"><circle class="b-outline" cx="0" cy="0" r="25" fill="#FFC454" stroke="#d7a013" stroke-width="2px"/><text class="caption" text-anchor="middle" pointer-events="none" x="0" y="5" font-size="10px" fill="#2A2C34" font-family="Helvetica Neue, Helvetica, Arial, sans-serif"> Lunreser…</text></g><g class="node" aria-label="graph-node2205" transform="translate(-562.3203483971708,442.63147599660226)"><circle class="b-outline" cx="0" cy="0" r="25" fill="#FFC454" stroke="#d7a013" stroke-width="2px"/><text class="caption" text-anchor="middle" pointer-events="none" x="0" y="5" font-size="10px" fill="#2A2C34" font-family="Helvetica Neue, Helvetica, Arial, sans-serif"> BLU_22…</text></g><g class="node" aria-label="graph-node0" transform="translate(-62.92929353383701,-895.0978162916103)"><circle class="b-outline" cx="0" cy="0" r="25" fill="#C990C0" stroke="#b261a5" stroke-width="2px"/><text class="caption" text-anchor="middle" pointer-events="none" x="0" y="5" font-size="10px" fill="#FFFFFF" font-family="Helvetica Neue, Helvetica, Arial, sans-serif"> CC1343:…</text></g><g class="node" aria-label="graph-node1" transform="translate(-293.11406859427535,-197.34384611215978)"><circle class="b-outline" cx="0" cy="0" r="25" fill="#C990C0" stroke="#b261a5" stroke-width="2px"/><text class="caption" text-anchor="middle" pointer-events="none" x="0" y="5" font-size="10px" fill="#FFFFFF" font-family="Helvetica Neue, Helvetica, Arial, sans-serif"> EX1:pati…</text></g><g class="node" aria-label="graph-node2" transform="translate(963.810992826341,13.404550949644209)"><circle class="b-outline" cx="0" cy="0" r="25" fill="#C990C0" stroke="#b261a5" stroke-width="2px"/><text class="caption" text-anchor="middle" pointer-events="none" x="0" y="5" font-size="10px" fill="#FFFFFF" font-family="Helvetica Neue, Helvetica, Arial, sans-serif"> CC3540:…</text></g><g class="node" aria-label="graph-node3" transform="translate(-210.00538586067938,59.89092151016473)"><circle class="b-outline" cx="0" cy="0" r="25" fill="#C990C0" stroke="#b261a5" stroke-width="2px"/><text class="caption" text-anchor="middle" pointer-events="none" x="0" y="5" font-size="10px" fill="#FFFFFF" font-family="Helvetica Neue, Helvetica, Arial, sans-serif"> CC4898:…</text></g><g class="node" aria-label="graph-node4" transform="translate(508.93413397690273,469.90708670493314)"><circle class="b-outline" cx="0" cy="0" r="25" fill="#C990C0" stroke="#b261a5" stroke-width="2px"/><text class="caption" text-anchor="middle" pointer-events="none" x="0" y="5" font-size="10px" fill="#FFFFFF" font-family="Helvetica Neue, Helvetica, Arial, sans-serif"> CC2114:…</text></g><g class="node" aria-label="graph-node5" transform="translate(-281.31237441524684,-341.85166955966)"><circle class="b-outline" cx="0" cy="0" r="25" fill="#C990C0" stroke="#b261a5" stroke-width="2px"/><text class="caption" text-anchor="middle" pointer-events="none" x="0" y="5" font-size="10px" fill="#FFFFFF" font-family="Helvetica Neue, Helvetica, Arial, sans-serif"> CC4700:…</text></g><g class="node" aria-label="graph-node6" transform="translate(-583.653054222847,-470.5243658480934)"><circle class="b-outline" cx="0" cy="0" r="25" fill="#C990C0" stroke="#b261a5" stroke-width="2px"/><text class="caption" text-anchor="middle" pointer-events="none" x="0" y="5" font-size="10px" fill="#FFFFFF" font-family="Helvetica Neue, Helvetica, Arial, sans-serif"> CC4804:…</text></g><g class="node" aria-label="graph-node7" transform="translate(104.59900393332691,500.2653317413299)"><circle class="b-outline" cx="0" cy="0" r="25" fill="#C990C0" stroke="#b261a5" stroke-width="2px"/><text class="caption" text-anchor="middle" pointer-events="none" x="0" y="5" font-size="10px" fill="#FFFFFF" font-family="Helvetica Neue, Helvetica, Arial, sans-serif"> CC9548:…</text></g><g class="node" aria-label="graph-node8" transform="translate(200.392861924776,193.93555276568716)"><circle class="b-outline" cx="0" cy="0" r="25" fill="#C990C0" stroke="#b261a5" stroke-width="2px"/><text class="caption" text-anchor="middle" pointer-events="none" x="0" y="5" font-size="10px" fill="#FFFFFF" font-family="Helvetica Neue, Helvetica, Arial, sans-serif"> CC7699:…</text></g><g class="node" aria-label="graph-node9" transform="translate(17.559293366218462,864.3767501739414)"><circle class="b-outline" cx="0" cy="0" r="25" fill="#C990C0" stroke="#b261a5" stroke-width="2px"/><text class="caption" text-anchor="middle" pointer-events="none" x="0" y="5" font-size="10px" fill="#FFFFFF" font-family="Helvetica Neue, Helvetica, Arial, sans-serif"> CC2375:…</text></g><g class="node" aria-label="graph-node2730" transform="translate(-479.327418696623,-774.7638646523042)"><circle class="b-outline" cx="0" cy="0" r="25" fill="#FFC454" stroke="#d7a013" stroke-width="2px"/><text class="caption" text-anchor="middle" pointer-events="none" x="0" y="5" font-size="10px" fill="#2A2C34" font-family="Helvetica Neue, Helvetica, Arial, sans-serif"> LATS1:g…</text></g><g class="node" aria-label="graph-node2731" transform="translate(-445.1531123573992,219.85427681727313)"><circle class="b-outline" cx="0" cy="0" r="25" fill="#FFC454" stroke="#d7a013" stroke-width="2px"/><text class="caption" text-anchor="middle" pointer-events="none" x="0" y="5" font-size="10px" fill="#2A2C34" font-family="Helvetica Neue, Helvetica, Arial, sans-serif"> BRCA1:…</text></g><g class="node" aria-label="graph-node2732" transform="translate(986.9539551247773,278.85610232148804)"><circle class="b-outline" cx="0" cy="0" r="25" fill="#FFC454" stroke="#d7a013" stroke-width="2px"/><text class="caption" text-anchor="middle" pointer-events="none" x="0" y="5" font-size="10px" fill="#2A2C34" font-family="Helvetica Neue, Helvetica, Arial, sans-serif"> ARID1B:…</text></g><g class="node" aria-label="graph-node2733" transform="translate(286.11533660593216,81.64729319122864)"><circle class="b-outline" cx="0" cy="0" r="25" fill="#FFC454" stroke="#d7a013" stroke-width="2px"/><text class="caption" text-anchor="middle" pointer-events="none" x="0" y="5" font-size="10px" fill="#2A2C34" font-family="Helvetica Neue, Helvetica, Arial, sans-serif"> TP53:ge…</text></g><g class="node" aria-label="graph-node2734" transform="translate(-43.27683739489548,-130.66559870720153)"><circle class="b-outline" cx="0" cy="0" r="25" fill="#FFC454" stroke="#d7a013" stroke-width="2px"/><text class="caption" text-anchor="middle" pointer-events="none" x="0" y="5" font-size="10px" fill="#2A2C34" font-family="Helvetica Neue, Helvetica, Arial, sans-serif"> ARID2:g…</text></g><g class="node" aria-label="graph-node2735" transform="translate(-839.8981036022085,-162.84602256125504)"><circle class="b-outline" cx="0" cy="0" r="25" fill="#FFC454" stroke="#d7a013" stroke-width="2px"/><text class="caption" text-anchor="middle" pointer-events="none" x="0" y="5" font-size="10px" fill="#2A2C34" font-family="Helvetica Neue, Helvetica, Arial, sans-serif"> TBL2:ge…</text></g><g class="node" aria-label="graph-node2736" transform="translate(-409.68257756586127,778.0015127608243)"><circle class="b-outline" cx="0" cy="0" r="25" fill="#FFC454" stroke="#d7a013" stroke-width="2px"/><text class="caption" text-anchor="middle" pointer-events="none" x="0" y="5" font-size="10px" fill="#2A2C34" font-family="Helvetica Neue, Helvetica, Arial, sans-serif"> ADAM1…</text></g></g></svg>