<svg xmlns="http://www.w3.org/2000/svg" width="743.7815551757812" height="1257.049560546875" viewBox="-118.5489730834961 -614.6243896484375 743.7815551757812 1257.049560546875"><title>Neo4j Graph Visualization</title><desc>Created using Neo4j (http://www.neo4j.com/)</desc><g class="layer relationships"><g class="relationship" transform="translate(-68.14143264927304 401.6115183712766) rotate(382.9588478623636)"><path class="b-outline" fill="#A5ABB6" stroke="none" d="M 25 0.5 L 37.87626155333895 0.5 L 37.87626155333895 -0.5 L 25 -0.5 Z M 121.5429256768741 0.5 L 134.41918723021305 0.5 L 134.41918723021305 3.5 L 141.41918723021305 0 L 134.41918723021305 -3.5 L 134.41918723021305 -0.5 L 121.5429256768741 -0.5 Z"/><text text-anchor="middle" pointer-events="none" font-size="8px" fill="#000000" x="79.70959361510653" y="3" font-family="Helvetica Neue, Helvetica, Arial, sans-serif">PatientCarriesSample</text></g><g class="relationship" transform="translate(-34.27855970914811 282.3729136086895) rotate(378.57858263907826)"><path class="b-outline" fill="#A5ABB6" stroke="none" d="M 25 0.5 L 32.45904423499496 0.5 L 32.45904423499496 -0.5 L 25 -0.5 Z M 116.12570835853012 0.5 L 123.58475259352508 0.5 L 123.58475259352508 3.5 L 130.58475259352508 0 L 123.58475259352508 -3.5 L 123.58475259352508 -0.5 L 116.12570835853012 -0.5 Z"/><text text-anchor="middle" pointer-events="none" font-size="8px" fill="#000000" x="74.29237629676254" y="3" font-family="Helvetica Neue, Helvetica, Arial, sans-serif">PatientCarriesSample</text></g><g class="relationship" transform="translate(-0.4910221679553075 171.1844590567863) rotate(365.5906882311274)"><path class="b-outline" fill="#A5ABB6" stroke="none" d="M 25 0.5 L 41.55020713500281 0.5 L 41.55020713500281 -0.5 L 25 -0.5 Z M 125.21687125853796 0.5 L 141.76707839354077 0.5 L 141.76707839354077 3.5 L 148.76707839354077 0 L 141.76707839354077 -3.5 L 141.76707839354077 -0.5 L 125.21687125853796 -0.5 Z"/><text text-anchor="middle" pointer-events="none" font-size="8px" fill="#000000" x="83.38353919677039" y="3" font-family="Helvetica Neue, Helvetica, Arial, sans-serif">PatientCarriesSample</text></g><g class="relationship" transform="translate(19.73546975877977 -77.55505120825325) rotate(366.44842188444323)"><path class="b-outline" fill="#A5ABB6" stroke="none" d="M 25 0.5 L 29.096218195863003 0.5 L 29.096218195863003 -0.5 L 25 -0.5 Z M 112.76288231939816 0.5 L 116.85910051526116 0.5 L 116.85910051526116 3.5 L 123.85910051526116 0 L 116.85910051526116 -3.5 L 116.85910051526116 -0.5 L 112.76288231939816 -0.5 Z"/><text text-anchor="middle" pointer-events="none" font-size="8px" fill="#000000" x="70.92955025763058" y="3" font-family="Helvetica Neue, Helvetica, Arial, sans-serif">PatientCarriesSample</text></g><g class="relationship" transform="translate(47.07199647095496 -293.4627340724258) rotate(337.8669831099078)"><path class="b-outline" fill="#A5ABB6" stroke="none" d="M 25 0.5 L 26.273653389898996 0.5 L 26.273653389898996 -0.5 L 25 -0.5 Z M 109.94031751343415 0.5 L 111.21397090333315 0.5 L 111.21397090333315 3.5 L 118.21397090333315 0 L 111.21397090333315 -3.5 L 111.21397090333315 -0.5 L 109.94031751343415 -0.5 Z"/><text text-anchor="middle" pointer-events="none" font-size="8px" fill="#000000" x="68.10698545166657" y="3" font-family="Helvetica Neue, Helvetica, Arial, sans-serif">PatientCarriesSample</text></g><g class="relationship" transform="translate(24.619738556735356 -446.1260627386861) rotate(350.32869571201604)"><path class="b-outline" fill="#A5ABB6" stroke="none" d="M 25 0.5 L 54.9402510338773 0.5 L 54.9402510338773 -0.5 L 25 -0.5 Z M 138.60691515741246 0.5 L 168.54716619128976 0.5 L 168.54716619128976 3.5 L 175.54716619128976 0 L 168.54716619128976 -3.5 L 168.54716619128976 -0.5 L 138.60691515741246 -0.5 Z"/><text text-anchor="middle" pointer-events="none" font-size="8px" fill="#000000" x="96.77358309564488" y="3" font-family="Helvetica Neue, Helvetica, Arial, sans-serif">PatientCarriesSample</text></g><g class="relationship" transform="translate(-89.54896991694005 498.88679729131377) rotate(389.10844794937844)"><path class="b-outline" fill="#A5ABB6" stroke="none" d="M 25 0.5 L 48.21727155862382 0.5 L 48.21727155862382 -0.5 L 25 -0.5 Z M 131.88393568215898 0.5 L 155.1012072407828 0.5 L 155.1012072407828 3.5 L 162.1012072407828 0 L 155.1012072407828 -3.5 L 155.1012072407828 -0.5 L 131.88393568215898 -0.5 Z"/><text text-anchor="middle" pointer-events="none" font-size="8px" fill="#000000" x="90.0506036203914" y="3" font-family="Helvetica Neue, Helvetica, Arial, sans-serif">PatientCarriesSample</text></g><g class="relationship" transform="translate(38.907925361813156 -190.99262858064534) rotate(372.31754709630064)"><path class="b-outline" fill="#A5ABB6" stroke="none" d="M 25 0.5 L 32.508831040010875 0.5 L 32.508831040010875 -0.5 L 25 -0.5 Z M 116.17549516354603 0.5 L 123.6843262035569 0.5 L 123.6843262035569 3.5 L 130.6843262035569 0 L 123.6843262035569 -3.5 L 123.6843262035569 -0.5 L 116.17549516354603 -0.5 Z"/><text text-anchor="middle" pointer-events="none" font-size="8px" fill="#000000" x="74.34216310177845" y="3" font-family="Helvetica Neue, Helvetica, Arial, sans-serif">PatientCarriesSample</text></g><g class="relationship" transform="translate(12.943370738606745 68.96097367733012) rotate(356.14342187595366)"><path class="b-outline" fill="#A5ABB6" stroke="none" d="M 25 0.5 L 38.98082221468677 0.5 L 38.98082221468677 -0.5 L 25 -0.5 Z M 122.64748633822192 0.5 L 136.6283085529087 0.5 L 136.6283085529087 3.5 L 143.6283085529087 0 L 136.6283085529087 -3.5 L 136.6283085529087 -0.5 L 122.64748633822192 -0.5 Z"/><text text-anchor="middle" pointer-events="none" font-size="8px" fill="#000000" x="80.81415427645435" y="3" font-family="Helvetica Neue, Helvetica, Arial, sans-serif">PatientCarriesSample</text></g><g class="relationship" transform="translate(6.840860479485855 -578.1675805232466) rotate(357.926897090623)"><path class="b-outline" fill="#A5ABB6" stroke="none" d="M 25 0.5 L 57.733396850417634 0.5 L 57.733396850417634 -0.5 L 25 -0.5 Z M 141.4000609739528 0.5 L 174.13345782437042 0.5 L 174.13345782437042 3.5 L 181.13345782437042 0 L 174.13345782437042 -3.5 L 174.13345782437042 -0.5 L 141.4000609739528 -0.5 Z"/><text text-anchor="middle" pointer-events="none" font-size="8px" fill="#000000" x="99.56672891218521" y="3" font-family="Helvetica Neue, Helvetica, Arial, sans-serif">PatientCarriesSample</text></g><g class="relationship" transform="translate(85.09490107471183 466.5266314436286) rotate(363.37816417910403)"><path class="b-outline" fill="#A5ABB6" stroke="none" d="M 25 0.5 L 52.55152281886316 0.5 L 52.55152281886316 -0.5 L 25 -0.5 Z M 145.0848556435702 0.5 L 172.63637846243336 0.5 L 172.63637846243336 3.5 L 179.63637846243336 0 L 172.63637846243336 -3.5 L 172.63637846243336 -0.5 L 145.0848556435702 -0.5 Z"/><text text-anchor="middle" pointer-events="none" font-size="8px" fill="#000000" x="98.81818923121668" y="3" font-family="Helvetica Neue, Helvetica, Arial, sans-serif">SampleCarriesAlteration</text></g><g class="relationship" transform="translate(113.19829364928927 331.94299493888667) rotate(361.50152026611556)"><path class="b-outline" fill="#A5ABB6" stroke="none" d="M 25 0.5 L 46.30365394741628 0.5 L 46.30365394741628 -0.5 L 25 -0.5 Z M 138.8369867721233 0.5 L 160.1406407195396 0.5 L 160.1406407195396 3.5 L 167.1406407195396 0 L 160.1406407195396 -3.5 L 160.1406407195396 -0.5 L 138.8369867721233 -0.5 Z"/><text text-anchor="middle" pointer-events="none" font-size="8px" fill="#000000" x="92.5703203597698" y="3" font-family="Helvetica Neue, Helvetica, Arial, sans-serif">SampleCarriesAlteration</text></g><g class="relationship" transform="translate(172.44948899969836 188.11304820348136) rotate(357.30299576809205)"><path class="b-outline" fill="#A5ABB6" stroke="none" d="M 25 0.5 L 55.14090060806518 0.5 L 55.14090060806518 -0.5 L 25 -0.5 Z M 147.6742334327722 0.5 L 177.8151340408374 0.5 L 177.8151340408374 3.5 L 184.8151340408374 0 L 177.8151340408374 -3.5 L 177.8151340408374 -0.5 L 147.6742334327722 -0.5 Z"/><text text-anchor="middle" pointer-events="none" font-size="8px" fill="#000000" x="101.4075670204187" y="3" font-family="Helvetica Neue, Helvetica, Arial, sans-serif">SampleCarriesAlteration</text></g><g class="relationship" transform="translate(167.6527922617104 -60.8368721873001) rotate(353.1005025208002)"><path class="b-outline" fill="#A5ABB6" stroke="none" d="M 25 0.5 L 46.34292035680248 0.5 L 46.34292035680248 -0.5 L 25 -0.5 Z M 138.87625318150953 0.5 L 160.219173538312 0.5 L 160.219173538312 3.5 L 167.219173538312 0 L 160.219173538312 -3.5 L 160.219173538312 -0.5 L 138.87625318150953 -0.5 Z"/><text text-anchor="middle" pointer-events="none" font-size="8px" fill="#000000" x="92.609586769156" y="3" font-family="Helvetica Neue, Helvetica, Arial, sans-serif">SampleCarriesAlteration</text></g><g class="relationship" transform="translate(179.73276995985123 -347.41975992845784) rotate(368.8127121683774)"><path class="b-outline" fill="#A5ABB6" stroke="none" d="M 25 0.5 L 41.17425141947348 0.5 L 41.17425141947348 -0.5 L 25 -0.5 Z M 133.7075842441805 0.5 L 149.881835663654 0.5 L 149.881835663654 3.5 L 156.881835663654 0 L 149.881835663654 -3.5 L 149.881835663654 -0.5 L 133.7075842441805 -0.5 Z"/><text text-anchor="middle" pointer-events="none" font-size="8px" fill="#000000" x="87.440917831827" y="3" font-family="Helvetica Neue, Helvetica, Arial, sans-serif">SampleCarriesAlteration</text></g><g class="relationship" transform="translate(222.3166744310319 -479.8171210965214) rotate(372.21337047759033)"><path class="b-outline" fill="#A5ABB6" stroke="none" d="M 25 0.5 L 43.593140286673275 0.5 L 43.593140286673275 -0.5 L 25 -0.5 Z M 136.1264731113803 0.5 L 154.71961339805358 0.5 L 154.71961339805358 3.5 L 161.71961339805358 0 L 154.71961339805358 -3.5 L 154.71961339805358 -0.5 L 136.1264731113803 -0.5 Z"/><text text-anchor="middle" pointer-events="none" font-size="8px" fill="#000000" x="89.85980669902679" y="3" font-family="Helvetica Neue, Helvetica, Arial, sans-serif">SampleCarriesAlteration</text></g><g class="relationship" transform="translate(73.92144953104754 589.9048379011696) rotate(365.91204328747426)"><path class="b-outline" fill="#A5ABB6" stroke="none" d="M 25 0.5 L 64.40770655046538 0.5 L 64.40770655046538 -0.5 L 25 -0.5 Z M 156.9410393751724 0.5 L 196.3487459256378 0.5 L 196.3487459256378 3.5 L 203.3487459256378 0 L 196.3487459256378 -3.5 L 196.3487459256378 -0.5 L 156.9410393751724 -0.5 Z"/><text text-anchor="middle" pointer-events="none" font-size="8px" fill="#000000" x="110.6743729628189" y="3" font-family="Helvetica Neue, Helvetica, Arial, sans-serif">SampleCarriesAlteration</text></g><g class="relationship" transform="translate(191.00844307003507 -157.78055339184704) rotate(351.82083083700957)"><path class="b-outline" fill="#A5ABB6" stroke="none" d="M 25 0.5 L 32.79302834167521 0.5 L 32.79302834167521 -0.5 L 25 -0.5 Z M 125.32636116638224 0.5 L 133.11938950805745 0.5 L 133.11938950805745 3.5 L 140.11938950805745 0 L 133.11938950805745 -3.5 L 133.11938950805745 -0.5 L 125.32636116638224 -0.5 Z"/><text text-anchor="middle" pointer-events="none" font-size="8px" fill="#000000" x="79.05969475402873" y="3" font-family="Helvetica Neue, Helvetica, Arial, sans-serif">SampleCarriesAlteration</text></g><g class="relationship" transform="translate(181.18982690002053 57.61917335549221) rotate(352.325865516008)"><path class="b-outline" fill="#A5ABB6" stroke="none" d="M 25 0.5 L 53.51131834729286 0.5 L 53.51131834729286 -0.5 L 25 -0.5 Z M 146.04465117199987 0.5 L 174.55596951929274 0.5 L 174.55596951929274 3.5 L 181.55596951929274 0 L 174.55596951929274 -3.5 L 174.55596951929274 -0.5 L 146.04465117199987 -0.5 Z"/><text text-anchor="middle" pointer-events="none" font-size="8px" fill="#000000" x="99.77798475964637" y="3" font-family="Helvetica Neue, Helvetica, Arial, sans-serif">SampleCarriesAlteration</text></g><g class="relationship" transform="translate(212.83940102627247 -585.624371201911) rotate(368.1608214805963)"><path class="b-outline" fill="#A5ABB6" stroke="none" d="M 25 0.5 L 58.79279316040132 0.5 L 58.79279316040132 -0.5 L 25 -0.5 Z M 151.32612598510835 0.5 L 185.11891914550966 0.5 L 185.11891914550966 3.5 L 192.11891914550966 0 L 185.11891914550966 -3.5 L 185.11891914550966 -0.5 L 151.32612598510835 -0.5 Z"/><text text-anchor="middle" pointer-events="none" font-size="8px" fill="#000000" x="105.05945957275483" y="3" font-family="Helvetica Neue, Helvetica, Arial, sans-serif">SampleCarriesAlteration</text></g><g class="relationship" transform="translate(289.37569466931046 478.5850209953575) rotate(350.8701370968654)"><path class="b-outline" fill="#A5ABB6" stroke="none" d="M 25 0.5 L 81.10068454898412 0.5 L 81.10068454898412 -0.5 L 25 -0.5 Z M 164.70068302310523 0.5 L 220.80136757208933 0.5 L 220.80136757208933 3.5 L 227.80136757208933 0 L 220.80136757208933 -3.5 L 220.80136757208933 -0.5 L 164.70068302310523 -0.5 Z"/><text text-anchor="middle" pointer-events="none" font-size="8px" fill="#000000" x="122.90068378604467" y="3" font-family="Helvetica Neue, Helvetica, Arial, sans-serif">AlterationAffectsGene</text></g><g class="relationship" transform="translate(305.2729590473423 336.9777470024117) rotate(354.65252714794633)"><path class="b-outline" fill="#A5ABB6" stroke="none" d="M 25 0.5 L 91.8418190703072 0.5 L 91.8418190703072 -0.5 L 25 -0.5 Z M 175.4418175444283 0.5 L 242.28363661473549 0.5 L 242.28363661473549 3.5 L 249.28363661473549 0 L 242.28363661473549 -3.5 L 242.28363661473549 -0.5 L 175.4418175444283 -0.5 Z"/><text text-anchor="middle" pointer-events="none" font-size="8px" fill="#000000" x="133.64181830736774" y="3" font-family="Helvetica Neue, Helvetica, Arial, sans-serif">AlterationAffectsGene</text></g><g class="relationship" transform="translate(382.03221849689356 178.24036016627173) rotate(343.7567679910587)"><path class="b-outline" fill="#A5ABB6" stroke="none" d="M 25 0.5 L 51.65076727071184 0.5 L 51.65076727071184 -0.5 L 25 -0.5 Z M 135.25076574483293 0.5 L 161.90153301554477 0.5 L 161.90153301554477 3.5 L 168.90153301554477 0 L 161.90153301554477 -3.5 L 161.90153301554477 -0.5 L 135.25076574483293 -0.5 Z"/><text text-anchor="middle" pointer-events="none" font-size="8px" fill="#000000" x="93.45076650777239" y="3" font-family="Helvetica Neue, Helvetica, Arial, sans-serif">AlterationAffectsGene</text></g><g class="relationship" transform="translate(358.4799905811137 -83.92780238334925) rotate(338.12397084600605)"><path class="b-outline" fill="#A5ABB6" stroke="none" d="M 25 0.5 L 82.80055326809872 0.5 L 82.80055326809872 -0.5 L 25 -0.5 Z M 166.40055174221982 0.5 L 224.20110501031854 0.5 L 224.20110501031854 3.5 L 231.20110501031854 0 L 224.20110501031854 -3.5 L 224.20110501031854 -0.5 L 166.40055174221982 -0.5 Z"/><text text-anchor="middle" pointer-events="none" font-size="8px" fill="#000000" x="124.60055250515927" y="3" font-family="Helvetica Neue, Helvetica, Arial, sans-serif">AlterationAffectsGene</text></g><g class="relationship" transform="translate(359.46738402157985 -319.5545369352375) rotate(390.6257641389476)"><path class="b-outline" fill="#A5ABB6" stroke="none" d="M 25 0.5 L 92.27213954649287 0.5 L 92.27213954649287 -0.5 L 25 -0.5 Z M 175.87213802061396 0.5 L 243.14427756710683 0.5 L 243.14427756710683 3.5 L 250.14427756710683 0 L 243.14427756710683 -3.5 L 243.14427756710683 -0.5 L 175.87213802061396 -0.5 Z"/><text text-anchor="middle" pointer-events="none" font-size="8px" fill="#000000" x="134.0721387835534" y="3" font-family="Helvetica Neue, Helvetica, Arial, sans-serif">AlterationAffectsGene</text></g><g class="relationship" transform="translate(354.4482415530339 -181.27193613851261) rotate(360.44637524147527)"><path class="b-outline" fill="#A5ABB6" stroke="none" d="M 25 0.5 L 75.59586022168045 0.5 L 75.59586022168045 -0.5 L 25 -0.5 Z M 159.19585869580155 0.5 L 209.791718917482 0.5 L 209.791718917482 3.5 L 216.791718917482 0 L 209.791718917482 -3.5 L 209.791718917482 -0.5 L 159.19585869580155 -0.5 Z"/><text text-anchor="middle" pointer-events="none" font-size="8px" fill="#000000" x="117.395859458741" y="3" font-family="Helvetica Neue, Helvetica, Arial, sans-serif">AlterationAffectsGene</text></g><g class="relationship" transform="translate(385.8957954861179 30.035936248823294) rotate(315.124575351365)"><path class="b-outline" fill="#A5ABB6" stroke="none" d="M 25 0.5 L 103.10827197188283 0.5 L 103.10827197188283 -0.5 L 25 -0.5 Z M 186.70827044600392 0.5 L 264.81654241788675 0.5 L 264.81654241788675 3.5 L 271.81654241788675 0 L 264.81654241788675 -3.5 L 264.81654241788675 -0.5 L 186.70827044600392 -0.5 Z"/><text text-anchor="middle" pointer-events="none" font-size="8px" fill="#000000" x="144.90827120894338" y="3" font-family="Helvetica Neue, Helvetica, Arial, sans-serif">AlterationAffectsGene</text></g><g class="relationship" transform="translate(427.75967158912465 -554.8038852858069) rotate(367.23723701001677)"><path class="b-outline" fill="#A5ABB6" stroke="none" d="M 25 0.5 L 36.856602627665964 0.5 L 36.856602627665964 -0.5 L 25 -0.5 Z M 120.45660110178706 0.5 L 132.31320372945302 0.5 L 132.31320372945302 3.5 L 139.31320372945302 0 L 132.31320372945302 -3.5 L 132.31320372945302 -0.5 L 120.45660110178706 -0.5 Z"/><text text-anchor="middle" pointer-events="none" font-size="8px" fill="#000000" x="78.65660186472651" y="3" font-family="Helvetica Neue, Helvetica, Arial, sans-serif">AlterationAffectsGene</text></g><g class="relationship" transform="translate(301.0556515583261 613.4251277642408) rotate(348.4014538281134)"><path class="b-outline" fill="#A5ABB6" stroke="none" d="M 25 0.5 L 64.5316314448528 0.5 L 64.5316314448528 -0.5 L 25 -0.5 Z M 148.13162991897389 0.5 L 187.6632613638267 0.5 L 187.6632613638267 3.5 L 194.6632613638267 0 L 187.6632613638267 -3.5 L 187.6632613638267 -0.5 L 148.13162991897389 -0.5 Z"/><text text-anchor="middle" pointer-events="none" font-size="8px" fill="#000000" x="106.33163068191335" y="3" font-family="Helvetica Neue, Helvetica, Arial, sans-serif">AlterationAffectsGene</text></g><g class="relationship" transform="translate(404.8101793853366 -440.3160492501555) rotate(367.6879345656719)"><path class="b-outline" fill="#A5ABB6" stroke="none" d="M 25 0.5 L 44.75830532672674 0.5 L 44.75830532672674 -0.5 L 25 -0.5 Z M 128.35830380084784 0.5 L 148.11660912757458 0.5 L 148.11660912757458 3.5 L 155.11660912757458 0 L 148.11660912757458 -3.5 L 148.11660912757458 -0.5 L 128.35830380084784 -0.5 Z"/><text text-anchor="middle" pointer-events="none" font-size="8px" fill="#000000" x="86.55830456378729" y="3" font-family="Helvetica Neue, Helvetica, Arial, sans-serif">AlterationAffectsGene</text></g></g><g class="layer nodes"><g class="node" aria-label="graph-node546" transform="translate(-68.14143264927304,401.6115183712766)"><circle class="b-outline" cx="0" cy="0" r="25" fill="#C990C0" stroke="#b261a5" stroke-width="2px"/><text class="caption" text-anchor="middle" pointer-events="none" x="0" y="5" font-size="10px" fill="#FFFFFF" font-family="Helvetica Neue, Helvetica, Arial, sans-serif"> CC1343:…</text></g><g class="node" aria-label="graph-node1092" transform="translate(85.09490107471183,466.5266314436286)"><circle class="b-outline" cx="0" cy="0" r="25" fill="#DA7194" stroke="#cc3c6c" stroke-width="2px"/><text class="caption" text-anchor="middle" pointer-events="none" x="0" y="5" font-size="10px" fill="#FFFFFF" font-family="Helvetica Neue, Helvetica, Arial, sans-serif"> CC5333…</text></g><g class="node" aria-label="graph-node547" transform="translate(-34.27855970914811,282.3729136086895)"><circle class="b-outline" cx="0" cy="0" r="25" fill="#C990C0" stroke="#b261a5" stroke-width="2px"/><text class="caption" text-anchor="middle" pointer-events="none" x="0" y="5" font-size="10px" fill="#FFFFFF" font-family="Helvetica Neue, Helvetica, Arial, sans-serif"> EX1:pati…</text></g><g class="node" aria-label="graph-node1093" transform="translate(113.19829364928927,331.94299493888667)"><circle class="b-outline" cx="0" cy="0" r="25" fill="#DA7194" stroke="#cc3c6c" stroke-width="2px"/><text class="caption" text-anchor="middle" pointer-events="none" x="0" y="5" font-size="10px" fill="#FFFFFF" font-family="Helvetica Neue, Helvetica, Arial, sans-serif"> EX1_pO…</text></g><g class="node" aria-label="graph-node548" transform="translate(-0.4910221679553075,171.1844590567863)"><circle class="b-outline" cx="0" cy="0" r="25" fill="#C990C0" stroke="#b261a5" stroke-width="2px"/><text class="caption" text-anchor="middle" pointer-events="none" x="0" y="5" font-size="10px" fill="#FFFFFF" font-family="Helvetica Neue, Helvetica, Arial, sans-serif"> CC3540:…</text></g><g class="node" aria-label="graph-node1094" transform="translate(172.44948899969836,188.11304820348136)"><circle class="b-outline" cx="0" cy="0" r="25" fill="#DA7194" stroke="#cc3c6c" stroke-width="2px"/><text class="caption" text-anchor="middle" pointer-events="none" x="0" y="5" font-size="10px" fill="#FFFFFF" font-family="Helvetica Neue, Helvetica, Arial, sans-serif"> CC2207…</text></g><g class="node" aria-label="graph-node549" transform="translate(19.73546975877977,-77.55505120825325)"><circle class="b-outline" cx="0" cy="0" r="25" fill="#C990C0" stroke="#b261a5" stroke-width="2px"/><text class="caption" text-anchor="middle" pointer-events="none" x="0" y="5" font-size="10px" fill="#FFFFFF" font-family="Helvetica Neue, Helvetica, Arial, sans-serif"> CC4898:…</text></g><g class="node" aria-label="graph-node1095" transform="translate(167.6527922617104,-60.8368721873001)"><circle class="b-outline" cx="0" cy="0" r="25" fill="#DA7194" stroke="#cc3c6c" stroke-width="2px"/><text class="caption" text-anchor="middle" pointer-events="none" x="0" y="5" font-size="10px" fill="#FFFFFF" font-family="Helvetica Neue, Helvetica, Arial, sans-serif"> CC0638…</text></g><g class="node" aria-label="graph-node550" transform="translate(47.07199647095496,-293.4627340724258)"><circle class="b-outline" cx="0" cy="0" r="25" fill="#C990C0" stroke="#b261a5" stroke-width="2px"/><text class="caption" text-anchor="middle" pointer-events="none" x="0" y="5" font-size="10px" fill="#FFFFFF" font-family="Helvetica Neue, Helvetica, Arial, sans-serif"> CC2114:…</text></g><g class="node" aria-label="graph-node1096" transform="translate(179.73276995985123,-347.41975992845784)"><circle class="b-outline" cx="0" cy="0" r="25" fill="#DA7194" stroke="#cc3c6c" stroke-width="2px"/><text class="caption" text-anchor="middle" pointer-events="none" x="0" y="5" font-size="10px" fill="#FFFFFF" font-family="Helvetica Neue, Helvetica, Arial, sans-serif"> CC0047…</text></g><g class="node" aria-label="graph-node551" transform="translate(24.619738556735356,-446.1260627386861)"><circle class="b-outline" cx="0" cy="0" r="25" fill="#C990C0" stroke="#b261a5" stroke-width="2px"/><text class="caption" text-anchor="middle" pointer-events="none" x="0" y="5" font-size="10px" fill="#FFFFFF" font-family="Helvetica Neue, Helvetica, Arial, sans-serif"> CC4700:…</text></g><g class="node" aria-label="graph-node1097" transform="translate(222.3166744310319,-479.8171210965214)"><circle class="b-outline" cx="0" cy="0" r="25" fill="#DA7194" stroke="#cc3c6c" stroke-width="2px"/><text class="caption" text-anchor="middle" pointer-events="none" x="0" y="5" font-size="10px" fill="#FFFFFF" font-family="Helvetica Neue, Helvetica, Arial, sans-serif"> CC1860…</text></g><g class="node" aria-label="graph-node552" transform="translate(-89.54896991694005,498.88679729131377)"><circle class="b-outline" cx="0" cy="0" r="25" fill="#C990C0" stroke="#b261a5" stroke-width="2px"/><text class="caption" text-anchor="middle" pointer-events="none" x="0" y="5" font-size="10px" fill="#FFFFFF" font-family="Helvetica Neue, Helvetica, Arial, sans-serif"> CC4804:…</text></g><g class="node" aria-label="graph-node1098" transform="translate(73.92144953104754,589.9048379011696)"><circle class="b-outline" cx="0" cy="0" r="25" fill="#DA7194" stroke="#cc3c6c" stroke-width="2px"/><text class="caption" text-anchor="middle" pointer-events="none" x="0" y="5" font-size="10px" fill="#FFFFFF" font-family="Helvetica Neue, Helvetica, Arial, sans-serif"> CC3307…</text></g><g class="node" aria-label="graph-node553" transform="translate(38.907925361813156,-190.99262858064534)"><circle class="b-outline" cx="0" cy="0" r="25" fill="#C990C0" stroke="#b261a5" stroke-width="2px"/><text class="caption" text-anchor="middle" pointer-events="none" x="0" y="5" font-size="10px" fill="#FFFFFF" font-family="Helvetica Neue, Helvetica, Arial, sans-serif"> CC9548:…</text></g><g class="node" aria-label="graph-node1099" transform="translate(191.00844307003507,-157.78055339184704)"><circle class="b-outline" cx="0" cy="0" r="25" fill="#DA7194" stroke="#cc3c6c" stroke-width="2px"/><text class="caption" text-anchor="middle" pointer-events="none" x="0" y="5" font-size="10px" fill="#FFFFFF" font-family="Helvetica Neue, Helvetica, Arial, sans-serif"> CC9256…</text></g><g class="node" aria-label="graph-node554" transform="translate(12.943370738606745,68.96097367733012)"><circle class="b-outline" cx="0" cy="0" r="25" fill="#C990C0" stroke="#b261a5" stroke-width="2px"/><text class="caption" text-anchor="middle" pointer-events="none" x="0" y="5" font-size="10px" fill="#FFFFFF" font-family="Helvetica Neue, Helvetica, Arial, sans-serif"> CC7699:…</text></g><g class="node" aria-label="graph-node1100" transform="translate(181.18982690002053,57.61917335549221)"><circle class="b-outline" cx="0" cy="0" r="25" fill="#DA7194" stroke="#cc3c6c" stroke-width="2px"/><text class="caption" text-anchor="middle" pointer-events="none" x="0" y="5" font-size="10px" fill="#FFFFFF" font-family="Helvetica Neue, Helvetica, Arial, sans-serif"> CC8958…</text></g><g class="node" aria-label="graph-node555" transform="translate(6.840860479485855,-578.1675805232466)"><circle class="b-outline" cx="0" cy="0" r="25" fill="#C990C0" stroke="#b261a5" stroke-width="2px"/><text class="caption" text-anchor="middle" pointer-events="none" x="0" y="5" font-size="10px" fill="#FFFFFF" font-family="Helvetica Neue, Helvetica, Arial, sans-serif"> CC2375:…</text></g><g class="node" aria-label="graph-node1101" transform="translate(212.83940102627247,-585.624371201911)"><circle class="b-outline" cx="0" cy="0" r="25" fill="#DA7194" stroke="#cc3c6c" stroke-width="2px"/><text class="caption" text-anchor="middle" pointer-events="none" x="0" y="5" font-size="10px" fill="#FFFFFF" font-family="Helvetica Neue, Helvetica, Arial, sans-serif"> CC1492…</text></g><g class="node" aria-label="graph-node1638" transform="translate(289.37569466931046,478.5850209953575)"><circle class="b-outline" cx="0" cy="0" r="25" fill="#57C7E3" stroke="#23b3d7" stroke-width="2px"/><text class="caption" text-anchor="middle" pointer-events="none" x="0" y="5" font-size="10px" fill="#2A2C34" font-family="Helvetica Neue, Helvetica, Arial, sans-serif"> 1_snv:al…</text></g><g class="node" aria-label="graph-node1639" transform="translate(305.2729590473423,336.9777470024117)"><circle class="b-outline" cx="0" cy="0" r="25" fill="#57C7E3" stroke="#23b3d7" stroke-width="2px"/><text class="caption" text-anchor="middle" pointer-events="none" x="0" y="5" font-size="10px" fill="#2A2C34" font-family="Helvetica Neue, Helvetica, Arial, sans-serif"> 2_snv:al…</text></g><g class="node" aria-label="graph-node1640" transform="translate(382.03221849689356,178.24036016627173)"><circle class="b-outline" cx="0" cy="0" r="25" fill="#57C7E3" stroke="#23b3d7" stroke-width="2px"/><text class="caption" text-anchor="middle" pointer-events="none" x="0" y="5" font-size="10px" fill="#2A2C34" font-family="Helvetica Neue, Helvetica, Arial, sans-serif"> 3_snv:al…</text></g><g class="node" aria-label="graph-node1641" transform="translate(358.4799905811137,-83.92780238334925)"><circle class="b-outline" cx="0" cy="0" r="25" fill="#57C7E3" stroke="#23b3d7" stroke-width="2px"/><text class="caption" text-anchor="middle" pointer-events="none" x="0" y="5" font-size="10px" fill="#2A2C34" font-family="Helvetica Neue, Helvetica, Arial, sans-serif"> 4_snv:al…</text></g><g class="node" aria-label="graph-node1642" transform="translate(359.46738402157985,-319.5545369352375)"><circle class="b-outline" cx="0" cy="0" r="25" fill="#57C7E3" stroke="#23b3d7" stroke-width="2px"/><text class="caption" text-anchor="middle" pointer-events="none" x="0" y="5" font-size="10px" fill="#2A2C34" font-family="Helvetica Neue, Helvetica, Arial, sans-serif"> 5_snv:al…</text></g><g class="node" aria-label="graph-node1643" transform="translate(404.8101793853366,-440.3160492501555)"><circle class="b-outline" cx="0" cy="0" r="25" fill="#57C7E3" stroke="#23b3d7" stroke-width="2px"/><text class="caption" text-anchor="middle" pointer-events="none" x="0" y="5" font-size="10px" fill="#2A2C34" font-family="Helvetica Neue, Helvetica, Arial, sans-serif"> 6_snv:al…</text></g><g class="node" aria-label="graph-node1644" transform="translate(301.0556515583261,613.4251277642408)"><circle class="b-outline" cx="0" cy="0" r="25" fill="#57C7E3" stroke="#23b3d7" stroke-width="2px"/><text class="caption" text-anchor="middle" pointer-events="none" x="0" y="5" font-size="10px" fill="#2A2C34" font-family="Helvetica Neue, Helvetica, Arial, sans-serif"> 7_snv:al…</text></g><g class="node" aria-label="graph-node1645" transform="translate(354.4482415530339,-181.27193613851261)"><circle class="b-outline" cx="0" cy="0" r="25" fill="#57C7E3" stroke="#23b3d7" stroke-width="2px"/><text class="caption" text-anchor="middle" pointer-events="none" x="0" y="5" font-size="10px" fill="#2A2C34" font-family="Helvetica Neue, Helvetica, Arial, sans-serif"> 8_snv:al…</text></g><g class="node" aria-label="graph-node1646" transform="translate(385.8957954861179,30.035936248823294)"><circle class="b-outline" cx="0" cy="0" r="25" fill="#57C7E3" stroke="#23b3d7" stroke-width="2px"/><text class="caption" text-anchor="middle" pointer-events="none" x="0" y="5" font-size="10px" fill="#2A2C34" font-family="Helvetica Neue, Helvetica, Arial, sans-serif"> 9_snv:al…</text></g><g class="node" aria-label="graph-node1647" transform="translate(427.75967158912465,-554.8038852858069)"><circle class="b-outline" cx="0" cy="0" r="25" fill="#57C7E3" stroke="#23b3d7" stroke-width="2px"/><text class="caption" text-anchor="middle" pointer-events="none" x="0" y="5" font-size="10px" fill="#2A2C34" font-family="Helvetica Neue, Helvetica, Arial, sans-serif"> 10_snv:…</text></g><g class="node" aria-label="graph-node0" transform="translate(538.9743823134586,438.47234752876346)"><circle class="b-outline" cx="0" cy="0" r="25" fill="#FFC454" stroke="#d7a013" stroke-width="2px"/><text class="caption" text-anchor="middle" pointer-events="none" x="0" y="5" font-size="10px" fill="#2A2C34" font-family="Helvetica Neue, Helvetica, Arial, sans-serif"> LATS1:g…</text></g><g class="node" aria-label="graph-node1" transform="translate(578.3628644687416,311.41572690353394)"><circle class="b-outline" cx="0" cy="0" r="25" fill="#FFC454" stroke="#d7a013" stroke-width="2px"/><text class="caption" text-anchor="middle" pointer-events="none" x="0" y="5" font-size="10px" fill="#2A2C34" font-family="Helvetica Neue, Helvetica, Arial, sans-serif"> BRCA1:…</text></g><g class="node" aria-label="graph-node2" transform="translate(568.1937650427326,124.00307508082693)"><circle class="b-outline" cx="0" cy="0" r="25" fill="#FFC454" stroke="#d7a013" stroke-width="2px"/><text class="caption" text-anchor="middle" pointer-events="none" x="0" y="5" font-size="10px" fill="#2A2C34" font-family="Helvetica Neue, Helvetica, Arial, sans-serif"> ARID1B:…</text></g><g class="node" aria-label="graph-node3" transform="translate(596.232622699383,-179.3882241786837)"><circle class="b-outline" cx="0" cy="0" r="25" fill="#FFC454" stroke="#d7a013" stroke-width="2px"/><text class="caption" text-anchor="middle" pointer-events="none" x="0" y="5" font-size="10px" fill="#2A2C34" font-family="Helvetica Neue, Helvetica, Arial, sans-serif"> TP53:ge…</text></g><g class="node" aria-label="graph-node6" transform="translate(590.7637980498608,-534.1040380252821)"><circle class="b-outline" cx="0" cy="0" r="25" fill="#FFC454" stroke="#d7a013" stroke-width="2px"/><text class="caption" text-anchor="middle" pointer-events="none" x="0" y="5" font-size="10px" fill="#2A2C34" font-family="Helvetica Neue, Helvetica, Arial, sans-serif"> ADAM1…</text></g><g class="node" aria-label="graph-node5" transform="translate(516.2334663263562,569.2611557435068)"><circle class="b-outline" cx="0" cy="0" r="25" fill="#FFC454" stroke="#d7a013" stroke-width="2px"/><text class="caption" text-anchor="middle" pointer-events="none" x="0" y="5" font-size="10px" fill="#2A2C34" font-family="Helvetica Neue, Helvetica, Arial, sans-serif"> TBL2:ge…</text></g><g class="node" aria-label="graph-node4" transform="translate(583.3077910563312,-416.2204996327202)"><circle class="b-outline" cx="0" cy="0" r="25" fill="#FFC454" stroke="#d7a013" stroke-width="2px"/><text class="caption" text-anchor="middle" pointer-events="none" x="0" y="5" font-size="10px" fill="#2A2C34" font-family="Helvetica Neue, Helvetica, Arial, sans-serif"> ARID2:g…</text></g></g></svg>